<svg xmlns="http://www.w3.org/2000/svg" xmlns:xlink="http://www.w3.org/1999/xlink" width="500" zoomAndPan="magnify" viewBox="0 0 375 374.999991" height="500" preserveAspectRatio="xMidYMid meet" version="1.0"><defs><g/><clipPath id="5667d87097"><path d="M 70.78125 47.011719 L 304.03125 47.011719 L 304.03125 265.261719 L 70.78125 265.261719 Z M 70.78125 47.011719 " clip-rule="nonzero"/></clipPath><clipPath id="2613abe9ea"><path d="M 78.261719 47.011719 L 296.511719 47.011719 L 296.511719 265.261719 L 78.261719 265.261719 Z M 78.261719 47.011719 " clip-rule="nonzero"/></clipPath></defs><g fill="#ffffff" fill-opacity="1"><g transform="translate(92.502399, 207.501008)"><g><path d="M 0.75 -16.3125 L 1.109375 -16.3125 C 1.148438 -16.09375 1.238281 -15.945312 1.375 -15.875 C 1.519531 -15.8125 1.78125 -15.78125 2.15625 -15.78125 L 11.125 -15.78125 C 11.445312 -15.78125 11.695312 -15.804688 11.875 -15.859375 C 12.0625 -15.921875 12.171875 -16.070312 12.203125 -16.3125 L 12.5625 -16.3125 L 12.5625 -13.34375 L 12.203125 -13.34375 C 12.171875 -13.570312 12.0625 -13.722656 11.875 -13.796875 C 11.695312 -13.878906 11.46875 -13.921875 11.1875 -13.921875 L 7.765625 -13.921875 L 7.765625 -1.4375 C 7.765625 -1.019531 7.820312 -0.742188 7.9375 -0.609375 C 8.0625 -0.484375 8.316406 -0.398438 8.703125 -0.359375 L 8.703125 0 L 4.625 0 L 4.625 -0.359375 C 5 -0.398438 5.242188 -0.484375 5.359375 -0.609375 C 5.484375 -0.742188 5.546875 -1.019531 5.546875 -1.4375 L 5.546875 -13.921875 L 2.125 -13.921875 C 1.84375 -13.921875 1.613281 -13.878906 1.4375 -13.796875 C 1.257812 -13.722656 1.148438 -13.570312 1.109375 -13.34375 L 0.75 -13.34375 Z M 0.75 -16.3125 "/></g></g></g><g fill="#ffffff" fill-opacity="1"><g transform="translate(107.317209, 207.501008)"><g><path d="M 3.5625 -7.890625 C 3.5625 -6.003906 3.976562 -4.5 4.8125 -3.375 C 5.644531 -2.25 6.820312 -1.6875 8.34375 -1.6875 C 9.863281 -1.6875 11.035156 -2.25 11.859375 -3.375 C 12.691406 -4.5 13.109375 -6.003906 13.109375 -7.890625 C 13.109375 -9.785156 12.691406 -11.289062 11.859375 -12.40625 C 11.035156 -13.53125 9.851562 -14.09375 8.3125 -14.09375 C 6.875 -14.09375 5.722656 -13.546875 4.859375 -12.453125 C 3.992188 -11.367188 3.5625 -9.847656 3.5625 -7.890625 Z M 8.34375 -15.953125 C 9.476562 -15.953125 10.476562 -15.734375 11.34375 -15.296875 C 12.21875 -14.859375 12.953125 -14.269531 13.546875 -13.53125 C 14.140625 -12.789062 14.582031 -11.941406 14.875 -10.984375 C 15.175781 -10.035156 15.328125 -9.046875 15.328125 -8.015625 C 15.328125 -6.773438 15.15625 -5.648438 14.8125 -4.640625 C 14.476562 -3.628906 14 -2.765625 13.375 -2.046875 C 12.757812 -1.335938 12.023438 -0.785156 11.171875 -0.390625 C 10.328125 -0.00390625 9.382812 0.1875 8.34375 0.1875 C 7.195312 0.1875 6.1875 -0.03125 5.3125 -0.46875 C 4.445312 -0.914062 3.71875 -1.503906 3.125 -2.234375 C 2.539062 -2.960938 2.097656 -3.8125 1.796875 -4.78125 C 1.492188 -5.75 1.34375 -6.765625 1.34375 -7.828125 C 1.34375 -9.046875 1.515625 -10.15625 1.859375 -11.15625 C 2.203125 -12.15625 2.679688 -13.007812 3.296875 -13.71875 C 3.921875 -14.4375 4.660156 -14.988281 5.515625 -15.375 C 6.378906 -15.757812 7.320312 -15.953125 8.34375 -15.953125 Z M 8.34375 -15.953125 "/></g></g></g><g fill="#ffffff" fill-opacity="1"><g transform="translate(125.490724, 207.501008)"><g><path d="M 5.515625 -15.78125 L 5.515625 -15.421875 C 5.253906 -15.378906 5.09375 -15.269531 5.03125 -15.09375 C 4.976562 -14.925781 4.953125 -14.675781 4.953125 -14.34375 L 4.953125 -5.484375 C 4.953125 -4.910156 4.992188 -4.390625 5.078125 -3.921875 C 5.171875 -3.460938 5.34375 -3.0625 5.59375 -2.71875 C 5.84375 -2.382812 6.1875 -2.128906 6.625 -1.953125 C 7.070312 -1.773438 7.644531 -1.6875 8.34375 -1.6875 C 9.519531 -1.6875 10.378906 -1.957031 10.921875 -2.5 C 11.460938 -3.050781 11.734375 -4.007812 11.734375 -5.375 L 11.734375 -14.25 C 11.734375 -14.644531 11.703125 -14.925781 11.640625 -15.09375 C 11.578125 -15.269531 11.414062 -15.378906 11.15625 -15.421875 L 11.15625 -15.78125 L 14.578125 -15.78125 L 14.578125 -15.421875 C 14.296875 -15.378906 14.117188 -15.269531 14.046875 -15.09375 C 13.984375 -14.925781 13.953125 -14.644531 13.953125 -14.25 L 13.953125 -4.203125 C 13.953125 -3.617188 13.832031 -3.0625 13.59375 -2.53125 C 13.351562 -2 13 -1.535156 12.53125 -1.140625 C 12.070312 -0.742188 11.488281 -0.421875 10.78125 -0.171875 C 10.070312 0.0664062 9.257812 0.1875 8.34375 0.1875 C 7.40625 0.1875 6.582031 0.0664062 5.875 -0.171875 C 5.175781 -0.421875 4.597656 -0.742188 4.140625 -1.140625 C 3.679688 -1.535156 3.332031 -2 3.09375 -2.53125 C 2.851562 -3.0625 2.734375 -3.617188 2.734375 -4.203125 L 2.734375 -14.34375 C 2.734375 -14.675781 2.695312 -14.925781 2.625 -15.09375 C 2.550781 -15.269531 2.375 -15.378906 2.09375 -15.421875 L 2.09375 -15.78125 Z M 5.515625 -15.78125 "/></g></g></g><g fill="#ffffff" fill-opacity="1"><g transform="translate(143.664238, 207.501008)"><g><path d="M 9 -8.453125 C 9.957031 -8.453125 10.703125 -8.679688 11.234375 -9.140625 C 11.765625 -9.609375 12.03125 -10.289062 12.03125 -11.1875 C 12.03125 -13.007812 10.910156 -13.921875 8.671875 -13.921875 L 5.15625 -13.921875 L 5.15625 -8.453125 Z M 8.578125 -15.78125 C 10.335938 -15.78125 11.722656 -15.367188 12.734375 -14.546875 C 13.742188 -13.722656 14.25 -12.554688 14.25 -11.046875 C 14.25 -10.546875 14.171875 -10.0625 14.015625 -9.59375 C 13.867188 -9.132812 13.648438 -8.71875 13.359375 -8.34375 C 13.078125 -7.976562 12.722656 -7.675781 12.296875 -7.4375 C 11.878906 -7.195312 11.410156 -7.046875 10.890625 -6.984375 L 14.0625 -1.171875 C 14.3125 -0.710938 14.601562 -0.441406 14.9375 -0.359375 L 14.9375 0 L 11.40625 0 L 11.40625 -0.359375 C 11.738281 -0.421875 11.90625 -0.539062 11.90625 -0.71875 C 11.90625 -0.863281 11.835938 -1.035156 11.703125 -1.234375 C 11.578125 -1.429688 11.4375 -1.679688 11.28125 -1.984375 L 8.703125 -6.78125 L 5.15625 -6.78125 L 5.15625 -1.4375 C 5.15625 -1.0625 5.203125 -0.796875 5.296875 -0.640625 C 5.398438 -0.492188 5.625 -0.398438 5.96875 -0.359375 L 5.96875 0 L 2.0625 0 L 2.0625 -0.359375 C 2.40625 -0.398438 2.632812 -0.484375 2.75 -0.609375 C 2.875 -0.742188 2.9375 -1.019531 2.9375 -1.4375 L 2.9375 -14.28125 C 2.9375 -14.695312 2.878906 -14.976562 2.765625 -15.125 C 2.660156 -15.28125 2.410156 -15.378906 2.015625 -15.421875 L 2.015625 -15.78125 Z M 8.578125 -15.78125 "/></g></g></g><g fill="#ffffff" fill-opacity="1"><g transform="translate(161.837752, 207.501008)"><g><path d="M 6.59375 -15.78125 L 6.59375 -15.421875 C 6.476562 -15.421875 6.34375 -15.390625 6.1875 -15.328125 C 6.039062 -15.265625 5.96875 -15.164062 5.96875 -15.03125 C 5.96875 -14.851562 6.054688 -14.625 6.234375 -14.34375 C 6.421875 -14.0625 6.625 -13.738281 6.84375 -13.375 L 11.9375 -4.625 L 12.0625 -4.625 L 12.0625 -14.25 C 12.0625 -14.625 12.023438 -14.898438 11.953125 -15.078125 C 11.878906 -15.265625 11.675781 -15.378906 11.34375 -15.421875 L 11.34375 -15.78125 L 14.734375 -15.78125 L 14.734375 -15.421875 C 14.429688 -15.421875 14.238281 -15.378906 14.15625 -15.296875 C 14.082031 -15.222656 14.046875 -15.070312 14.046875 -14.84375 L 14.046875 -1.46875 C 14.046875 -1.050781 14.097656 -0.769531 14.203125 -0.625 C 14.316406 -0.488281 14.539062 -0.398438 14.875 -0.359375 L 14.875 0 L 11.046875 0 L 11.046875 -0.359375 C 11.265625 -0.398438 11.445312 -0.445312 11.59375 -0.5 C 11.738281 -0.5625 11.8125 -0.644531 11.8125 -0.75 C 11.8125 -0.90625 11.726562 -1.109375 11.5625 -1.359375 C 11.394531 -1.609375 11.109375 -2.066406 10.703125 -2.734375 L 4.6875 -13.078125 L 4.625 -13.078125 L 4.625 -1.46875 C 4.625 -1.070312 4.664062 -0.796875 4.75 -0.640625 C 4.84375 -0.492188 5.03125 -0.398438 5.3125 -0.359375 L 5.3125 0 L 2.09375 0 L 2.09375 -0.359375 C 2.300781 -0.398438 2.441406 -0.492188 2.515625 -0.640625 C 2.597656 -0.796875 2.640625 -1.050781 2.640625 -1.40625 L 2.640625 -14.34375 C 2.640625 -14.695312 2.597656 -14.953125 2.515625 -15.109375 C 2.441406 -15.273438 2.285156 -15.378906 2.046875 -15.421875 L 2.046875 -15.78125 Z M 6.59375 -15.78125 "/></g></g></g><g fill="#ffffff" fill-opacity="1"><g transform="translate(180.011267, 207.501008)"><g><path d="M 7.171875 -13.765625 L 4.953125 -6.390625 L 9.59375 -6.390625 L 7.234375 -13.765625 Z M 9.390625 -15.78125 L 9.390625 -15.421875 C 9.148438 -15.359375 9.03125 -15.164062 9.03125 -14.84375 C 9.03125 -14.664062 9.066406 -14.457031 9.140625 -14.21875 C 9.222656 -13.976562 9.296875 -13.769531 9.359375 -13.59375 L 13.59375 -1.265625 C 13.6875 -0.960938 13.769531 -0.75 13.84375 -0.625 C 13.914062 -0.507812 14.03125 -0.421875 14.1875 -0.359375 L 14.1875 0 L 11.046875 0 L 11.046875 -0.359375 C 11.316406 -0.460938 11.453125 -0.632812 11.453125 -0.875 C 11.453125 -1.070312 11.265625 -1.691406 10.890625 -2.734375 C 10.710938 -3.253906 10.570312 -3.65625 10.46875 -3.9375 C 10.363281 -4.226562 10.296875 -4.445312 10.265625 -4.59375 L 4.34375 -4.59375 C 4.25 -4.25 4.140625 -3.894531 4.015625 -3.53125 C 3.898438 -3.175781 3.769531 -2.800781 3.625 -2.40625 C 3.363281 -1.625 3.234375 -1.148438 3.234375 -0.984375 C 3.234375 -0.867188 3.269531 -0.726562 3.34375 -0.5625 C 3.414062 -0.40625 3.53125 -0.304688 3.6875 -0.265625 L 3.6875 0 L 0.8125 0 L 0.8125 -0.234375 C 0.90625 -0.335938 0.984375 -0.414062 1.046875 -0.46875 C 1.109375 -0.53125 1.179688 -0.6875 1.265625 -0.9375 L 5.28125 -13.40625 C 5.382812 -13.75 5.472656 -14.023438 5.546875 -14.234375 C 5.628906 -14.441406 5.671875 -14.644531 5.671875 -14.84375 C 5.671875 -15.1875 5.519531 -15.378906 5.21875 -15.421875 L 5.21875 -15.78125 Z M 9.390625 -15.78125 "/></g></g></g><g fill="#ffffff" fill-opacity="1"><g transform="translate(196.505429, 207.501008)"><g><path d="M 6.8125 -15.78125 L 6.8125 -15.421875 C 6.644531 -15.378906 6.5 -15.3125 6.375 -15.21875 C 6.25 -15.132812 6.1875 -15.007812 6.1875 -14.84375 C 6.1875 -14.644531 6.253906 -14.378906 6.390625 -14.046875 L 9.984375 -4.984375 L 10.046875 -4.984375 L 13.171875 -13.796875 C 13.265625 -14.097656 13.347656 -14.335938 13.421875 -14.515625 C 13.492188 -14.703125 13.53125 -14.84375 13.53125 -14.9375 C 13.53125 -15.082031 13.460938 -15.1875 13.328125 -15.25 C 13.203125 -15.320312 13.0625 -15.378906 12.90625 -15.421875 L 12.90625 -15.78125 L 17.484375 -15.78125 L 17.484375 -15.421875 C 17.203125 -15.378906 17.023438 -15.28125 16.953125 -15.125 C 16.890625 -14.976562 16.859375 -14.695312 16.859375 -14.28125 L 16.859375 -1.46875 C 16.859375 -1.070312 16.894531 -0.796875 16.96875 -0.640625 C 17.050781 -0.492188 17.265625 -0.398438 17.609375 -0.359375 L 17.609375 0 L 14.0625 0 L 14.0625 -0.359375 C 14.320312 -0.398438 14.503906 -0.460938 14.609375 -0.546875 C 14.710938 -0.640625 14.765625 -0.90625 14.765625 -1.34375 L 14.765625 -12.296875 L 14.703125 -12.296875 L 10.234375 -0.15625 L 9.84375 -0.15625 L 5.1875 -12.296875 L 5.125 -12.296875 L 5.125 -1.46875 C 5.125 -1.113281 5.164062 -0.847656 5.25 -0.671875 C 5.332031 -0.503906 5.519531 -0.398438 5.8125 -0.359375 L 5.8125 0 L 2.484375 0 L 2.484375 -0.359375 C 2.703125 -0.398438 2.847656 -0.503906 2.921875 -0.671875 C 2.992188 -0.847656 3.03125 -1.113281 3.03125 -1.46875 L 3.03125 -14.3125 C 3.03125 -14.644531 2.992188 -14.898438 2.921875 -15.078125 C 2.847656 -15.265625 2.675781 -15.378906 2.40625 -15.421875 L 2.40625 -15.78125 Z M 6.8125 -15.78125 "/></g></g></g><g fill="#ffffff" fill-opacity="1"><g transform="translate(218.00764, 207.501008)"><g><path d="M 13.171875 -13.171875 L 12.8125 -13.171875 C 12.769531 -13.492188 12.648438 -13.695312 12.453125 -13.78125 C 12.253906 -13.875 12.015625 -13.921875 11.734375 -13.921875 L 4.765625 -13.921875 L 4.765625 -9.0625 L 9.8125 -9.0625 C 10.070312 -9.0625 10.300781 -9.101562 10.5 -9.1875 C 10.695312 -9.28125 10.816406 -9.46875 10.859375 -9.75 L 11.21875 -9.75 L 11.21875 -6.421875 L 10.859375 -6.421875 C 10.796875 -6.941406 10.445312 -7.203125 9.8125 -7.203125 L 4.765625 -7.203125 L 4.765625 -1.859375 L 11.96875 -1.859375 C 12.1875 -1.859375 12.40625 -1.894531 12.625 -1.96875 C 12.84375 -2.050781 12.972656 -2.242188 13.015625 -2.546875 L 13.375 -2.546875 L 13.375 0.546875 L 13.015625 0.546875 C 12.972656 0.316406 12.847656 0.164062 12.640625 0.09375 C 12.429688 0.03125 12.207031 0 11.96875 0 L 1.921875 0 L 1.921875 -0.359375 C 2.179688 -0.398438 2.347656 -0.5 2.421875 -0.65625 C 2.503906 -0.820312 2.546875 -1.09375 2.546875 -1.46875 L 2.546875 -14.28125 C 2.546875 -14.65625 2.507812 -14.925781 2.4375 -15.09375 C 2.375 -15.269531 2.203125 -15.378906 1.921875 -15.421875 L 1.921875 -15.78125 L 11.96875 -15.78125 C 12.1875 -15.78125 12.367188 -15.8125 12.515625 -15.875 C 12.671875 -15.945312 12.769531 -16.09375 12.8125 -16.3125 L 13.171875 -16.3125 Z M 13.171875 -13.171875 "/></g></g></g><g fill="#ffffff" fill-opacity="1"><g transform="translate(234.501803, 207.501008)"><g><path d="M 6.59375 -15.78125 L 6.59375 -15.421875 C 6.476562 -15.421875 6.34375 -15.390625 6.1875 -15.328125 C 6.039062 -15.265625 5.96875 -15.164062 5.96875 -15.03125 C 5.96875 -14.851562 6.054688 -14.625 6.234375 -14.34375 C 6.421875 -14.0625 6.625 -13.738281 6.84375 -13.375 L 11.9375 -4.625 L 12.0625 -4.625 L 12.0625 -14.25 C 12.0625 -14.625 12.023438 -14.898438 11.953125 -15.078125 C 11.878906 -15.265625 11.675781 -15.378906 11.34375 -15.421875 L 11.34375 -15.78125 L 14.734375 -15.78125 L 14.734375 -15.421875 C 14.429688 -15.421875 14.238281 -15.378906 14.15625 -15.296875 C 14.082031 -15.222656 14.046875 -15.070312 14.046875 -14.84375 L 14.046875 -1.46875 C 14.046875 -1.050781 14.097656 -0.769531 14.203125 -0.625 C 14.316406 -0.488281 14.539062 -0.398438 14.875 -0.359375 L 14.875 0 L 11.046875 0 L 11.046875 -0.359375 C 11.265625 -0.398438 11.445312 -0.445312 11.59375 -0.5 C 11.738281 -0.5625 11.8125 -0.644531 11.8125 -0.75 C 11.8125 -0.90625 11.726562 -1.109375 11.5625 -1.359375 C 11.394531 -1.609375 11.109375 -2.066406 10.703125 -2.734375 L 4.6875 -13.078125 L 4.625 -13.078125 L 4.625 -1.46875 C 4.625 -1.070312 4.664062 -0.796875 4.75 -0.640625 C 4.84375 -0.492188 5.03125 -0.398438 5.3125 -0.359375 L 5.3125 0 L 2.09375 0 L 2.09375 -0.359375 C 2.300781 -0.398438 2.441406 -0.492188 2.515625 -0.640625 C 2.597656 -0.796875 2.640625 -1.050781 2.640625 -1.40625 L 2.640625 -14.34375 C 2.640625 -14.695312 2.597656 -14.953125 2.515625 -15.109375 C 2.441406 -15.273438 2.285156 -15.378906 2.046875 -15.421875 L 2.046875 -15.78125 Z M 6.59375 -15.78125 "/></g></g></g><g fill="#ffffff" fill-opacity="1"><g transform="translate(252.675317, 207.501008)"><g><path d="M 0.75 -16.3125 L 1.109375 -16.3125 C 1.148438 -16.09375 1.238281 -15.945312 1.375 -15.875 C 1.519531 -15.8125 1.78125 -15.78125 2.15625 -15.78125 L 11.125 -15.78125 C 11.445312 -15.78125 11.695312 -15.804688 11.875 -15.859375 C 12.0625 -15.921875 12.171875 -16.070312 12.203125 -16.3125 L 12.5625 -16.3125 L 12.5625 -13.34375 L 12.203125 -13.34375 C 12.171875 -13.570312 12.0625 -13.722656 11.875 -13.796875 C 11.695312 -13.878906 11.46875 -13.921875 11.1875 -13.921875 L 7.765625 -13.921875 L 7.765625 -1.4375 C 7.765625 -1.019531 7.820312 -0.742188 7.9375 -0.609375 C 8.0625 -0.484375 8.316406 -0.398438 8.703125 -0.359375 L 8.703125 0 L 4.625 0 L 4.625 -0.359375 C 5 -0.398438 5.242188 -0.484375 5.359375 -0.609375 C 5.484375 -0.742188 5.546875 -1.019531 5.546875 -1.4375 L 5.546875 -13.921875 L 2.125 -13.921875 C 1.84375 -13.921875 1.613281 -13.878906 1.4375 -13.796875 C 1.257812 -13.722656 1.148438 -13.570312 1.109375 -13.34375 L 0.75 -13.34375 Z M 0.75 -16.3125 "/></g></g></g><g fill="#ffffff" fill-opacity="1"><g transform="translate(267.490128, 207.501008)"><g><path d="M 7.5 -15.953125 C 8.238281 -15.953125 8.878906 -15.890625 9.421875 -15.765625 C 9.960938 -15.648438 10.421875 -15.523438 10.796875 -15.390625 C 11.179688 -15.253906 11.492188 -15.125 11.734375 -15 C 11.972656 -14.875 12.171875 -14.8125 12.328125 -14.8125 C 12.429688 -14.8125 12.503906 -14.828125 12.546875 -14.859375 C 12.597656 -14.890625 12.644531 -14.925781 12.6875 -14.96875 L 12.953125 -14.796875 L 11.4375 -11.96875 L 11.125 -12.125 C 11.125 -12.757812 10.785156 -13.242188 10.109375 -13.578125 C 9.429688 -13.921875 8.582031 -14.09375 7.5625 -14.09375 C 7.082031 -14.09375 6.617188 -14.035156 6.171875 -13.921875 C 5.734375 -13.816406 5.347656 -13.660156 5.015625 -13.453125 C 4.691406 -13.242188 4.429688 -12.976562 4.234375 -12.65625 C 4.046875 -12.34375 3.953125 -11.972656 3.953125 -11.546875 C 3.953125 -10.984375 4.222656 -10.550781 4.765625 -10.25 C 5.304688 -9.957031 6.085938 -9.679688 7.109375 -9.421875 C 7.953125 -9.222656 8.75 -9.007812 9.5 -8.78125 C 10.25 -8.550781 10.898438 -8.253906 11.453125 -7.890625 C 12.015625 -7.523438 12.460938 -7.070312 12.796875 -6.53125 C 13.128906 -6 13.296875 -5.332031 13.296875 -4.53125 C 13.296875 -3.050781 12.769531 -1.894531 11.71875 -1.0625 C 10.664062 -0.226562 9.226562 0.1875 7.40625 0.1875 C 6.664062 0.1875 5.941406 0.09375 5.234375 -0.09375 C 4.523438 -0.289062 3.84375 -0.550781 3.1875 -0.875 C 3 -0.945312 2.859375 -1.007812 2.765625 -1.0625 C 2.679688 -1.113281 2.578125 -1.140625 2.453125 -1.140625 C 2.234375 -1.140625 2.054688 -1.039062 1.921875 -0.84375 L 1.5625 -0.953125 L 3.453125 -4.34375 L 3.75 -4.234375 C 3.75 -3.390625 4.085938 -2.753906 4.765625 -2.328125 C 5.453125 -1.898438 6.394531 -1.6875 7.59375 -1.6875 C 8.03125 -1.6875 8.46875 -1.738281 8.90625 -1.84375 C 9.34375 -1.957031 9.742188 -2.125 10.109375 -2.34375 C 10.472656 -2.5625 10.765625 -2.835938 10.984375 -3.171875 C 11.203125 -3.515625 11.3125 -3.914062 11.3125 -4.375 C 11.3125 -4.800781 11.207031 -5.160156 11 -5.453125 C 10.789062 -5.753906 10.5 -6.019531 10.125 -6.25 C 9.75 -6.476562 9.296875 -6.671875 8.765625 -6.828125 C 8.242188 -6.992188 7.660156 -7.15625 7.015625 -7.3125 C 6.335938 -7.5 5.691406 -7.691406 5.078125 -7.890625 C 4.472656 -8.085938 3.941406 -8.347656 3.484375 -8.671875 C 3.023438 -8.992188 2.660156 -9.382812 2.390625 -9.84375 C 2.117188 -10.300781 1.984375 -10.859375 1.984375 -11.515625 C 1.984375 -12.921875 2.488281 -14.007812 3.5 -14.78125 C 4.507812 -15.5625 5.84375 -15.953125 7.5 -15.953125 Z M 7.5 -15.953125 "/></g></g></g><path stroke-linecap="butt" transform="matrix(0.75, 0, 0, 0.75, 31.382815, 196.301003)" fill="none" stroke-linejoin="miter" d="M -0.00000333226 1.499704 L 69.932293 1.499704 " stroke="#ffffff" stroke-width="3" stroke-opacity="1" stroke-miterlimit="4"/><path stroke-linecap="butt" transform="matrix(0.75, 0, 0, 0.75, 291.168765, 196.301003)" fill="none" stroke-linejoin="miter" d="M -0.00106217 1.499704 L 69.931234 1.499704 " stroke="#ffffff" stroke-width="3" stroke-opacity="1" stroke-miterlimit="4"/><path fill="#a6a6a6" d="M 292.511719 246.828125 C 291.121094 245.402344 200.578125 116.195312 187.386719 97.785156 C 175.453125 114.421875 84.140625 241.886719 83.480469 244.914062 L 89.050781 219.929688 L 125.273438 57.246094 L 187.109375 57.246094 L 187.144531 56.761719 L 249.15625 56.761719 L 249.257812 57.246094 L 285.519531 220.03125 Z M 292.511719 246.828125 " fill-opacity="1" fill-rule="nonzero"/><g clip-path="url(#5667d87097)"><path fill="#4a4d4d" d="M 303.683594 254.519531 L 283.398438 163.519531 L 257.472656 47.085938 L 117.132812 47.085938 L 70.78125 255.074219 L 79.234375 265.480469 L 295.75 265.480469 L 304.207031 255.074219 Z M 125.273438 57.246094 L 249.292969 57.246094 L 285.660156 220.449219 L 291.121094 244.914062 L 83.480469 244.914062 L 89.050781 219.929688 Z M 125.273438 57.246094 " fill-opacity="1" fill-rule="nonzero"/></g><path fill="#4a4d4d" d="M 291.121094 244.914062 L 83.480469 244.914062 C 84.140625 241.851562 175.453125 114.421875 187.386719 97.785156 C 200.578125 116.230469 291.121094 244.914062 291.121094 244.914062 Z M 291.121094 244.914062 " fill-opacity="1" fill-rule="nonzero"/><path fill="#4a4d4d" d="M 249.851562 246.027344 L 124.75 246.027344 C 125.167969 244.183594 180.183594 167.417969 187.355469 157.394531 C 195.324219 168.496094 249.363281 243.9375 249.746094 245.75 Z M 249.851562 246.027344 " fill-opacity="1" fill-rule="nonzero"/><path fill="#4a4d4d" d="M 200.960938 73.324219 C 200.960938 74.019531 200.855469 74.707031 200.652344 75.386719 C 200.445312 76.070312 200.140625 76.730469 199.738281 77.371094 C 199.335938 78.015625 198.839844 78.625 198.257812 79.199219 C 197.671875 79.777344 197.007812 80.3125 196.261719 80.804688 C 195.515625 81.296875 194.707031 81.734375 193.832031 82.121094 C 192.953125 82.503906 192.03125 82.832031 191.058594 83.097656 C 190.082031 83.363281 189.082031 83.5625 188.046875 83.699219 C 187.015625 83.835938 185.972656 83.902344 184.917969 83.902344 C 183.863281 83.902344 182.820312 83.835938 181.789062 83.699219 C 180.753906 83.5625 179.753906 83.363281 178.777344 83.097656 C 177.804688 82.832031 176.882812 82.503906 176.003906 82.121094 C 175.128906 81.734375 174.320312 81.296875 173.574219 80.804688 C 172.828125 80.3125 172.164062 79.777344 171.578125 79.199219 C 170.996094 78.625 170.5 78.015625 170.097656 77.371094 C 169.695312 76.730469 169.390625 76.070312 169.183594 75.386719 C 168.980469 74.707031 168.875 74.019531 168.875 73.324219 C 168.875 72.628906 168.980469 71.941406 169.183594 71.261719 C 169.390625 70.578125 169.695312 69.917969 170.097656 69.277344 C 170.5 68.632812 170.996094 68.023438 171.578125 67.445312 C 172.164062 66.871094 172.828125 66.335938 173.574219 65.84375 C 174.320312 65.351562 175.128906 64.914062 176.003906 64.527344 C 176.882812 64.140625 177.804688 63.816406 178.777344 63.550781 C 179.753906 63.285156 180.753906 63.085938 181.789062 62.949219 C 182.820312 62.8125 183.863281 62.746094 184.917969 62.746094 C 185.972656 62.746094 187.015625 62.8125 188.046875 62.949219 C 189.082031 63.085938 190.082031 63.285156 191.058594 63.550781 C 192.03125 63.816406 192.953125 64.140625 193.832031 64.527344 C 194.707031 64.914062 195.515625 65.351562 196.261719 65.84375 C 197.007812 66.335938 197.671875 66.871094 198.257812 67.445312 C 198.839844 68.023438 199.335938 68.632812 199.738281 69.277344 C 200.140625 69.917969 200.445312 70.578125 200.652344 71.261719 C 200.855469 71.941406 200.960938 72.628906 200.960938 73.324219 Z M 200.960938 73.324219 " fill-opacity="1" fill-rule="nonzero"/><path fill="#4a4d4d" d="M 200.996094 73.324219 C 200.996094 73.8125 200.960938 74.261719 200.855469 74.714844 C 198.59375 70.679688 192.710938 67.789062 185.789062 67.789062 C 177.644531 67.789062 170.929688 71.792969 169.886719 76.976562 C 169.257812 75.828125 168.910156 74.613281 168.910156 73.324219 C 168.910156 67.476562 176.113281 62.746094 184.953125 62.746094 C 193.792969 62.746094 200.996094 67.476562 200.996094 73.324219 Z M 200.996094 73.324219 " fill-opacity="1" fill-rule="nonzero"/><path fill="#000000" d="M 200.855469 74.714844 C 199.8125 79.902344 193.09375 83.902344 184.953125 83.902344 C 178.027344 83.902344 172.148438 81.015625 169.886719 76.976562 C 170.929688 71.792969 177.644531 67.789062 185.789062 67.789062 C 192.679688 67.824219 198.59375 70.679688 200.855469 74.714844 Z M 200.855469 74.714844 " fill-opacity="1" fill-rule="nonzero"/><g clip-path="url(#2613abe9ea)"><path fill="#000000" d="M 78.261719 47.011719 L 78.261719 265.261719 L 203.742188 265.261719 L 203.742188 120.421875 L 254.363281 120.421875 L 254.363281 111.765625 L 203.742188 111.765625 L 203.742188 95.410156 L 254.363281 95.410156 L 254.363281 86.875 L 120.109375 86.875 L 120.109375 95.410156 L 195.023438 95.410156 L 195.023438 111.824219 L 120.109375 111.824219 L 120.109375 120.484375 L 170.851562 120.484375 L 170.851562 248.304688 L 179.570312 248.304688 L 179.570312 120.484375 L 195.082031 120.484375 L 195.082031 256.363281 L 87.21875 256.363281 L 87.21875 56.148438 L 287.433594 56.148438 L 287.433594 256.363281 L 215.644531 256.363281 L 215.644531 265.261719 L 296.511719 265.261719 L 296.511719 47.011719 Z M 78.261719 47.011719 " fill-opacity="1" fill-rule="nonzero"/></g><path stroke-linecap="butt" transform="matrix(0.75, 0, 0, 0.75, 31.382815, 318.786425)" fill="none" stroke-linejoin="miter" d="M -0.00000333226 1.498308 L 69.932293 1.498308 " stroke="#000000" stroke-width="3" stroke-opacity="1" stroke-miterlimit="4"/><path stroke-linecap="butt" transform="matrix(0.75, 0, 0, 0.75, 291.168765, 318.786425)" fill="none" stroke-linejoin="miter" d="M -0.00106217 1.498308 L 69.931234 1.498308 " stroke="#000000" stroke-width="3" stroke-opacity="1" stroke-miterlimit="4"/><g fill="#000000" fill-opacity="1"><g transform="translate(33.650836, 305.934354)"><g><path d="M 1.59375 -15.703125 C 1.5625 -15.742188 1.535156 -15.78125 1.515625 -15.8125 C 1.492188 -15.851562 1.460938 -15.894531 1.421875 -15.9375 C 1.390625 -16.03125 1.367188 -16.128906 1.359375 -16.234375 C 1.347656 -16.347656 1.34375 -16.453125 1.34375 -16.546875 C 1.382812 -16.972656 1.40625 -17.394531 1.40625 -17.8125 C 1.414062 -18.238281 1.429688 -18.65625 1.453125 -19.0625 C 1.453125 -19.25 1.488281 -19.390625 1.5625 -19.484375 C 1.644531 -19.554688 1.726562 -19.597656 1.8125 -19.609375 C 1.90625 -19.617188 2 -19.625 2.09375 -19.625 C 6.664062 -19.625 11.242188 -19.617188 15.828125 -19.609375 C 20.410156 -19.597656 25 -19.585938 29.59375 -19.578125 C 29.65625 -19.578125 29.71875 -19.570312 29.78125 -19.5625 C 29.84375 -19.550781 29.898438 -19.515625 29.953125 -19.453125 C 30.015625 -19.398438 30.046875 -19.289062 30.046875 -19.125 L 30.046875 -16.21875 C 30.046875 -16.101562 30.039062 -15.988281 30.03125 -15.875 C 30.019531 -15.757812 29.96875 -15.664062 29.875 -15.59375 C 29.800781 -15.519531 29.71875 -15.476562 29.625 -15.46875 C 29.53125 -15.457031 29.4375 -15.453125 29.34375 -15.453125 C 27.664062 -15.492188 25.988281 -15.519531 24.3125 -15.53125 C 22.644531 -15.550781 20.972656 -15.570312 19.296875 -15.59375 C 19.046875 -15.59375 18.800781 -15.570312 18.5625 -15.53125 C 18.320312 -15.5 18.125 -15.378906 17.96875 -15.171875 C 17.882812 -15.046875 17.832031 -14.894531 17.8125 -14.71875 C 17.789062 -14.550781 17.78125 -14.382812 17.78125 -14.21875 C 17.800781 -11.96875 17.820312 -9.707031 17.84375 -7.4375 C 17.875 -5.164062 17.898438 -2.890625 17.921875 -0.609375 C 17.921875 -0.535156 17.914062 -0.460938 17.90625 -0.390625 C 17.894531 -0.316406 17.863281 -0.253906 17.8125 -0.203125 C 17.738281 -0.117188 17.613281 -0.078125 17.4375 -0.078125 C 16.882812 -0.00390625 16.328125 0.0351562 15.765625 0.046875 C 15.203125 0.0546875 14.640625 0.0507812 14.078125 0.03125 C 13.816406 0.03125 13.550781 -0.00390625 13.28125 -0.078125 C 13.007812 -0.160156 12.800781 -0.3125 12.65625 -0.53125 C 12.601562 -0.664062 12.570312 -0.804688 12.5625 -0.953125 C 12.550781 -1.097656 12.546875 -1.238281 12.546875 -1.375 C 12.578125 -3.539062 12.613281 -5.695312 12.65625 -7.84375 C 12.707031 -9.988281 12.765625 -12.132812 12.828125 -14.28125 C 12.828125 -14.5 12.796875 -14.726562 12.734375 -14.96875 C 12.679688 -15.21875 12.550781 -15.398438 12.34375 -15.515625 C 12.269531 -15.546875 12.1875 -15.5625 12.09375 -15.5625 C 12 -15.5625 11.90625 -15.5625 11.8125 -15.5625 C 10.300781 -15.550781 8.789062 -15.535156 7.28125 -15.515625 C 5.769531 -15.492188 4.25 -15.460938 2.71875 -15.421875 C 2.53125 -15.421875 2.332031 -15.4375 2.125 -15.46875 C 1.914062 -15.5 1.738281 -15.578125 1.59375 -15.703125 Z M 1.59375 -15.703125 "/></g></g></g><g fill="#000000" fill-opacity="1"><g transform="translate(69.570593, 305.934354)"><g><path d="M 2.796875 0 L 2.859375 0.0625 C 3.003906 0.1875 3.179688 0.222656 3.390625 0.171875 C 3.597656 0.128906 3.789062 0.09375 3.96875 0.0625 C 4.175781 0 4.382812 -0.0351562 4.59375 -0.046875 C 4.800781 -0.0546875 5 -0.0507812 5.1875 -0.03125 C 9.082031 0.0390625 12.972656 0.0507812 16.859375 0 C 20.753906 -0.0390625 24.644531 -0.0625 28.53125 -0.0625 C 28.90625 -0.0625 29.144531 -0.0546875 29.25 -0.046875 C 29.363281 -0.0351562 29.597656 -0.03125 29.953125 -0.03125 C 30.160156 -0.03125 30.359375 0.00390625 30.546875 0.078125 C 30.734375 0.160156 30.914062 0.195312 31.09375 0.1875 C 31.269531 0.175781 31.425781 0.046875 31.5625 -0.203125 C 31.6875 -0.398438 31.734375 -0.644531 31.703125 -0.9375 C 31.679688 -1.226562 31.640625 -1.515625 31.578125 -1.796875 C 31.523438 -2.085938 31.5 -2.347656 31.5 -2.578125 C 31.5 -2.929688 31.507812 -3.21875 31.53125 -3.4375 C 31.550781 -3.664062 31.488281 -3.835938 31.34375 -3.953125 C 31.207031 -4.078125 30.894531 -4.140625 30.40625 -4.140625 C 26.800781 -4.117188 23.191406 -4.097656 19.578125 -4.078125 C 15.972656 -4.066406 12.359375 -4.050781 8.734375 -4.03125 C 8.265625 -4.03125 8.003906 -4.179688 7.953125 -4.484375 C 7.898438 -4.796875 7.851562 -5.128906 7.8125 -5.484375 C 7.769531 -5.804688 7.726562 -6.164062 7.6875 -6.5625 C 7.65625 -6.96875 7.722656 -7.316406 7.890625 -7.609375 C 8.003906 -7.796875 8.175781 -7.894531 8.40625 -7.90625 C 8.644531 -7.914062 8.867188 -7.894531 9.078125 -7.84375 C 9.390625 -7.75 9.691406 -7.695312 9.984375 -7.6875 C 10.285156 -7.675781 10.609375 -7.671875 10.953125 -7.671875 C 14.234375 -7.671875 17.53125 -7.671875 20.84375 -7.671875 C 24.15625 -7.671875 27.460938 -7.679688 30.765625 -7.703125 C 30.847656 -7.703125 30.925781 -7.707031 31 -7.71875 C 31.070312 -7.726562 31.132812 -7.757812 31.1875 -7.8125 C 31.257812 -7.882812 31.296875 -8.003906 31.296875 -8.171875 L 31.5625 -10.5 C 31.613281 -10.945312 31.488281 -11.257812 31.1875 -11.4375 C 30.894531 -11.613281 30.515625 -11.707031 30.046875 -11.71875 C 29.578125 -11.726562 29.113281 -11.707031 28.65625 -11.65625 C 28.195312 -11.613281 27.835938 -11.59375 27.578125 -11.59375 C 26.660156 -11.570312 25.738281 -11.5625 24.8125 -11.5625 C 23.894531 -11.5625 22.96875 -11.550781 22.03125 -11.53125 C 20.1875 -11.53125 18.335938 -11.523438 16.484375 -11.515625 C 14.640625 -11.515625 12.796875 -11.515625 10.953125 -11.515625 C 10.597656 -11.515625 10.160156 -11.472656 9.640625 -11.390625 C 9.128906 -11.316406 8.71875 -11.316406 8.40625 -11.390625 C 8.195312 -11.429688 8.039062 -11.554688 7.9375 -11.765625 C 7.832031 -11.984375 7.789062 -12.195312 7.8125 -12.40625 C 7.8125 -12.738281 7.800781 -13.085938 7.78125 -13.453125 C 7.757812 -13.816406 7.769531 -14.15625 7.8125 -14.46875 C 7.851562 -14.789062 7.960938 -15.050781 8.140625 -15.25 C 8.328125 -15.457031 8.640625 -15.5625 9.078125 -15.5625 C 11.054688 -15.550781 13.03125 -15.546875 15 -15.546875 C 16.976562 -15.546875 18.957031 -15.535156 20.9375 -15.515625 C 21.925781 -15.492188 22.925781 -15.484375 23.9375 -15.484375 C 24.945312 -15.484375 25.945312 -15.472656 26.9375 -15.453125 C 27.363281 -15.453125 27.78125 -15.457031 28.1875 -15.46875 C 28.601562 -15.476562 29.015625 -15.460938 29.421875 -15.421875 C 29.722656 -15.410156 30.050781 -15.390625 30.40625 -15.359375 C 30.757812 -15.328125 31.054688 -15.414062 31.296875 -15.625 C 31.453125 -15.738281 31.535156 -15.882812 31.546875 -16.0625 C 31.566406 -16.238281 31.578125 -16.410156 31.578125 -16.578125 L 31.5 -18.5625 C 31.5 -18.695312 31.488281 -18.820312 31.46875 -18.9375 C 31.445312 -19.0625 31.398438 -19.171875 31.328125 -19.265625 C 31.222656 -19.410156 31.078125 -19.5 30.890625 -19.53125 C 30.710938 -19.5625 30.535156 -19.578125 30.359375 -19.578125 L 3.5625 -19.65625 C 3.207031 -19.65625 2.960938 -19.503906 2.828125 -19.203125 C 2.691406 -18.910156 2.625 -18.539062 2.625 -18.09375 C 2.625 -17.65625 2.648438 -17.226562 2.703125 -16.8125 C 2.765625 -16.394531 2.796875 -16.054688 2.796875 -15.796875 C 2.816406 -14.597656 2.828125 -13.40625 2.828125 -12.21875 C 2.828125 -11.03125 2.828125 -9.84375 2.828125 -8.65625 C 2.828125 -7.8125 2.828125 -6.972656 2.828125 -6.140625 C 2.828125 -5.316406 2.816406 -4.492188 2.796875 -3.671875 C 2.796875 -3.128906 2.753906 -2.59375 2.671875 -2.0625 C 2.585938 -1.53125 2.582031 -0.992188 2.65625 -0.453125 C 2.675781 -0.378906 2.695312 -0.300781 2.71875 -0.21875 C 2.738281 -0.144531 2.765625 -0.0703125 2.796875 0 Z M 2.796875 0 "/></g></g></g><g fill="#000000" fill-opacity="1"><g transform="translate(108.289976, 305.934354)"><g><path d="M 31.5 -1.125 C 31.632812 -0.988281 31.765625 -0.851562 31.890625 -0.71875 C 32.023438 -0.59375 32.15625 -0.457031 32.28125 -0.3125 C 32.320312 -0.269531 32.351562 -0.226562 32.375 -0.1875 C 32.40625 -0.15625 32.410156 -0.113281 32.390625 -0.0625 C 32.378906 0.0195312 32.285156 0.0625 32.109375 0.0625 L 27.9375 0.0625 C 27.695312 0.0625 27.457031 0.0507812 27.21875 0.03125 C 26.988281 0.0078125 26.773438 -0.0351562 26.578125 -0.109375 C 26.328125 -0.203125 26.101562 -0.347656 25.90625 -0.546875 C 25.71875 -0.742188 25.53125 -0.9375 25.34375 -1.125 L 20.96875 -5.859375 C 20.6875 -6.171875 20.382812 -6.472656 20.0625 -6.765625 C 19.75 -7.066406 19.390625 -7.285156 18.984375 -7.421875 C 18.703125 -7.515625 18.421875 -7.566406 18.140625 -7.578125 C 17.859375 -7.597656 17.578125 -7.601562 17.296875 -7.59375 L 15.125 -7.59375 C 14.539062 -7.570312 13.957031 -7.5625 13.375 -7.5625 C 12.800781 -7.5625 12.21875 -7.5625 11.625 -7.5625 C 11.300781 -7.5625 10.976562 -7.554688 10.65625 -7.546875 C 10.34375 -7.535156 10.03125 -7.53125 9.71875 -7.53125 C 9.601562 -7.53125 9.425781 -7.539062 9.1875 -7.5625 C 8.957031 -7.59375 8.734375 -7.609375 8.515625 -7.609375 C 8.304688 -7.609375 8.15625 -7.5625 8.0625 -7.46875 C 8.03125 -7.4375 8.007812 -7.382812 8 -7.3125 C 7.988281 -7.25 7.984375 -7.191406 7.984375 -7.140625 C 8.003906 -6.953125 8.015625 -6.765625 8.015625 -6.578125 C 8.015625 -6.390625 8.015625 -6.191406 8.015625 -5.984375 C 8.023438 -5.691406 8.03125 -5.398438 8.03125 -5.109375 C 8.03125 -4.816406 8.039062 -4.523438 8.0625 -4.234375 C 8.082031 -3.671875 8.097656 -3.101562 8.109375 -2.53125 C 8.117188 -1.96875 8.125 -1.394531 8.125 -0.8125 C 8.132812 -0.625 8.117188 -0.429688 8.078125 -0.234375 C 8.035156 -0.0351562 7.921875 0.0976562 7.734375 0.171875 C 7.648438 0.191406 7.554688 0.191406 7.453125 0.171875 C 7.359375 0.148438 7.265625 0.128906 7.171875 0.109375 C 6.648438 -0.00390625 6.117188 -0.0625 5.578125 -0.0625 C 5.046875 -0.0703125 4.519531 -0.0234375 4 0.078125 C 3.851562 0.0976562 3.703125 0.125 3.546875 0.15625 C 3.398438 0.1875 3.253906 0.179688 3.109375 0.140625 C 2.878906 0.0664062 2.742188 -0.0546875 2.703125 -0.234375 C 2.671875 -0.410156 2.675781 -0.601562 2.71875 -0.8125 C 2.769531 -1.03125 2.796875 -1.226562 2.796875 -1.40625 L 2.796875 -3.921875 C 2.796875 -4.742188 2.796875 -5.570312 2.796875 -6.40625 C 2.796875 -7.25 2.796875 -8.09375 2.796875 -8.9375 L 2.796875 -18.984375 C 2.796875 -19.054688 2.800781 -19.132812 2.8125 -19.21875 C 2.820312 -19.300781 2.851562 -19.375 2.90625 -19.4375 C 2.96875 -19.507812 3.046875 -19.550781 3.140625 -19.5625 C 3.234375 -19.570312 3.328125 -19.578125 3.421875 -19.578125 C 6.609375 -19.648438 9.800781 -19.6875 13 -19.6875 C 16.207031 -19.6875 19.40625 -19.640625 22.59375 -19.546875 C 23.28125 -19.523438 23.96875 -19.492188 24.65625 -19.453125 C 25.351562 -19.421875 26.039062 -19.320312 26.71875 -19.15625 C 27.363281 -18.988281 28 -18.738281 28.625 -18.40625 C 29.25 -18.082031 29.78125 -17.660156 30.21875 -17.140625 C 30.695312 -16.578125 31.023438 -15.929688 31.203125 -15.203125 C 31.378906 -14.472656 31.414062 -13.734375 31.3125 -12.984375 C 31.21875 -12.242188 30.984375 -11.554688 30.609375 -10.921875 C 30.609375 -10.753906 30.472656 -10.539062 30.203125 -10.28125 C 29.941406 -10.03125 29.769531 -9.851562 29.6875 -9.75 C 29.5 -9.5625 29.300781 -9.390625 29.09375 -9.234375 C 28.882812 -9.085938 28.675781 -8.945312 28.46875 -8.8125 C 28.207031 -8.644531 27.925781 -8.507812 27.625 -8.40625 C 27.332031 -8.3125 27.035156 -8.21875 26.734375 -8.125 C 26.660156 -8.101562 26.492188 -8.078125 26.234375 -8.046875 C 25.972656 -8.023438 25.726562 -7.984375 25.5 -7.921875 C 25.28125 -7.867188 25.160156 -7.796875 25.140625 -7.703125 C 25.117188 -7.640625 25.148438 -7.554688 25.234375 -7.453125 C 25.429688 -7.171875 25.675781 -6.925781 25.96875 -6.71875 C 26.257812 -6.507812 26.523438 -6.285156 26.765625 -6.046875 C 27.023438 -5.785156 27.273438 -5.515625 27.515625 -5.234375 C 27.765625 -4.953125 28.019531 -4.679688 28.28125 -4.421875 C 28.800781 -3.859375 29.332031 -3.300781 29.875 -2.75 C 30.414062 -2.207031 30.957031 -1.664062 31.5 -1.125 Z M 17.078125 -11.203125 C 18.234375 -11.179688 19.390625 -11.179688 20.546875 -11.203125 C 21.703125 -11.234375 22.820312 -11.375 23.90625 -11.625 C 24.15625 -11.675781 24.390625 -11.738281 24.609375 -11.8125 C 24.835938 -11.882812 25.050781 -11.988281 25.25 -12.125 C 25.457031 -12.25 25.640625 -12.40625 25.796875 -12.59375 C 25.960938 -12.78125 26.0625 -12.988281 26.09375 -13.21875 C 26.1875 -13.550781 26.148438 -13.882812 25.984375 -14.21875 C 25.816406 -14.5625 25.59375 -14.828125 25.3125 -15.015625 C 25.03125 -15.210938 24.722656 -15.363281 24.390625 -15.46875 C 24.054688 -15.570312 23.71875 -15.648438 23.375 -15.703125 C 22.613281 -15.835938 21.84375 -15.910156 21.0625 -15.921875 C 20.289062 -15.929688 19.523438 -15.9375 18.765625 -15.9375 C 17.523438 -15.9375 16.296875 -15.9375 15.078125 -15.9375 C 13.859375 -15.945312 12.628906 -15.945312 11.390625 -15.9375 L 9.9375 -15.9375 C 9.75 -15.914062 9.570312 -15.910156 9.40625 -15.921875 C 9.238281 -15.941406 9.070312 -15.953125 8.90625 -15.953125 C 8.789062 -15.953125 8.65625 -15.960938 8.5 -15.984375 C 8.351562 -16.003906 8.234375 -15.976562 8.140625 -15.90625 C 8.035156 -15.832031 7.976562 -15.6875 7.96875 -15.46875 C 7.957031 -15.25 7.960938 -15.023438 7.984375 -14.796875 C 8.015625 -14.566406 8.03125 -14.382812 8.03125 -14.25 C 8.050781 -13.820312 8.0625 -13.390625 8.0625 -12.953125 C 8.0625 -12.523438 8.0625 -12.097656 8.0625 -11.671875 C 8.0625 -11.484375 8.117188 -11.363281 8.234375 -11.3125 C 8.359375 -11.257812 8.507812 -11.234375 8.6875 -11.234375 C 9.875 -11.234375 11.0625 -11.234375 12.25 -11.234375 C 13.4375 -11.234375 14.625 -11.222656 15.8125 -11.203125 Z M 17.078125 -11.203125 "/></g></g></g><g fill="#000000" fill-opacity="1"><g transform="translate(146.673411, 305.934354)"><g><path d="M 31.5 -1.125 C 31.632812 -0.988281 31.765625 -0.851562 31.890625 -0.71875 C 32.023438 -0.59375 32.15625 -0.457031 32.28125 -0.3125 C 32.320312 -0.269531 32.351562 -0.226562 32.375 -0.1875 C 32.40625 -0.15625 32.410156 -0.113281 32.390625 -0.0625 C 32.378906 0.0195312 32.285156 0.0625 32.109375 0.0625 L 27.9375 0.0625 C 27.695312 0.0625 27.457031 0.0507812 27.21875 0.03125 C 26.988281 0.0078125 26.773438 -0.0351562 26.578125 -0.109375 C 26.328125 -0.203125 26.101562 -0.347656 25.90625 -0.546875 C 25.71875 -0.742188 25.53125 -0.9375 25.34375 -1.125 L 20.96875 -5.859375 C 20.6875 -6.171875 20.382812 -6.472656 20.0625 -6.765625 C 19.75 -7.066406 19.390625 -7.285156 18.984375 -7.421875 C 18.703125 -7.515625 18.421875 -7.566406 18.140625 -7.578125 C 17.859375 -7.597656 17.578125 -7.601562 17.296875 -7.59375 L 15.125 -7.59375 C 14.539062 -7.570312 13.957031 -7.5625 13.375 -7.5625 C 12.800781 -7.5625 12.21875 -7.5625 11.625 -7.5625 C 11.300781 -7.5625 10.976562 -7.554688 10.65625 -7.546875 C 10.34375 -7.535156 10.03125 -7.53125 9.71875 -7.53125 C 9.601562 -7.53125 9.425781 -7.539062 9.1875 -7.5625 C 8.957031 -7.59375 8.734375 -7.609375 8.515625 -7.609375 C 8.304688 -7.609375 8.15625 -7.5625 8.0625 -7.46875 C 8.03125 -7.4375 8.007812 -7.382812 8 -7.3125 C 7.988281 -7.25 7.984375 -7.191406 7.984375 -7.140625 C 8.003906 -6.953125 8.015625 -6.765625 8.015625 -6.578125 C 8.015625 -6.390625 8.015625 -6.191406 8.015625 -5.984375 C 8.023438 -5.691406 8.03125 -5.398438 8.03125 -5.109375 C 8.03125 -4.816406 8.039062 -4.523438 8.0625 -4.234375 C 8.082031 -3.671875 8.097656 -3.101562 8.109375 -2.53125 C 8.117188 -1.96875 8.125 -1.394531 8.125 -0.8125 C 8.132812 -0.625 8.117188 -0.429688 8.078125 -0.234375 C 8.035156 -0.0351562 7.921875 0.0976562 7.734375 0.171875 C 7.648438 0.191406 7.554688 0.191406 7.453125 0.171875 C 7.359375 0.148438 7.265625 0.128906 7.171875 0.109375 C 6.648438 -0.00390625 6.117188 -0.0625 5.578125 -0.0625 C 5.046875 -0.0703125 4.519531 -0.0234375 4 0.078125 C 3.851562 0.0976562 3.703125 0.125 3.546875 0.15625 C 3.398438 0.1875 3.253906 0.179688 3.109375 0.140625 C 2.878906 0.0664062 2.742188 -0.0546875 2.703125 -0.234375 C 2.671875 -0.410156 2.675781 -0.601562 2.71875 -0.8125 C 2.769531 -1.03125 2.796875 -1.226562 2.796875 -1.40625 L 2.796875 -3.921875 C 2.796875 -4.742188 2.796875 -5.570312 2.796875 -6.40625 C 2.796875 -7.25 2.796875 -8.09375 2.796875 -8.9375 L 2.796875 -18.984375 C 2.796875 -19.054688 2.800781 -19.132812 2.8125 -19.21875 C 2.820312 -19.300781 2.851562 -19.375 2.90625 -19.4375 C 2.96875 -19.507812 3.046875 -19.550781 3.140625 -19.5625 C 3.234375 -19.570312 3.328125 -19.578125 3.421875 -19.578125 C 6.609375 -19.648438 9.800781 -19.6875 13 -19.6875 C 16.207031 -19.6875 19.40625 -19.640625 22.59375 -19.546875 C 23.28125 -19.523438 23.96875 -19.492188 24.65625 -19.453125 C 25.351562 -19.421875 26.039062 -19.320312 26.71875 -19.15625 C 27.363281 -18.988281 28 -18.738281 28.625 -18.40625 C 29.25 -18.082031 29.78125 -17.660156 30.21875 -17.140625 C 30.695312 -16.578125 31.023438 -15.929688 31.203125 -15.203125 C 31.378906 -14.472656 31.414062 -13.734375 31.3125 -12.984375 C 31.21875 -12.242188 30.984375 -11.554688 30.609375 -10.921875 C 30.609375 -10.753906 30.472656 -10.539062 30.203125 -10.28125 C 29.941406 -10.03125 29.769531 -9.851562 29.6875 -9.75 C 29.5 -9.5625 29.300781 -9.390625 29.09375 -9.234375 C 28.882812 -9.085938 28.675781 -8.945312 28.46875 -8.8125 C 28.207031 -8.644531 27.925781 -8.507812 27.625 -8.40625 C 27.332031 -8.3125 27.035156 -8.21875 26.734375 -8.125 C 26.660156 -8.101562 26.492188 -8.078125 26.234375 -8.046875 C 25.972656 -8.023438 25.726562 -7.984375 25.5 -7.921875 C 25.28125 -7.867188 25.160156 -7.796875 25.140625 -7.703125 C 25.117188 -7.640625 25.148438 -7.554688 25.234375 -7.453125 C 25.429688 -7.171875 25.675781 -6.925781 25.96875 -6.71875 C 26.257812 -6.507812 26.523438 -6.285156 26.765625 -6.046875 C 27.023438 -5.785156 27.273438 -5.515625 27.515625 -5.234375 C 27.765625 -4.953125 28.019531 -4.679688 28.28125 -4.421875 C 28.800781 -3.859375 29.332031 -3.300781 29.875 -2.75 C 30.414062 -2.207031 30.957031 -1.664062 31.5 -1.125 Z M 17.078125 -11.203125 C 18.234375 -11.179688 19.390625 -11.179688 20.546875 -11.203125 C 21.703125 -11.234375 22.820312 -11.375 23.90625 -11.625 C 24.15625 -11.675781 24.390625 -11.738281 24.609375 -11.8125 C 24.835938 -11.882812 25.050781 -11.988281 25.25 -12.125 C 25.457031 -12.25 25.640625 -12.40625 25.796875 -12.59375 C 25.960938 -12.78125 26.0625 -12.988281 26.09375 -13.21875 C 26.1875 -13.550781 26.148438 -13.882812 25.984375 -14.21875 C 25.816406 -14.5625 25.59375 -14.828125 25.3125 -15.015625 C 25.03125 -15.210938 24.722656 -15.363281 24.390625 -15.46875 C 24.054688 -15.570312 23.71875 -15.648438 23.375 -15.703125 C 22.613281 -15.835938 21.84375 -15.910156 21.0625 -15.921875 C 20.289062 -15.929688 19.523438 -15.9375 18.765625 -15.9375 C 17.523438 -15.9375 16.296875 -15.9375 15.078125 -15.9375 C 13.859375 -15.945312 12.628906 -15.945312 11.390625 -15.9375 L 9.9375 -15.9375 C 9.75 -15.914062 9.570312 -15.910156 9.40625 -15.921875 C 9.238281 -15.941406 9.070312 -15.953125 8.90625 -15.953125 C 8.789062 -15.953125 8.65625 -15.960938 8.5 -15.984375 C 8.351562 -16.003906 8.234375 -15.976562 8.140625 -15.90625 C 8.035156 -15.832031 7.976562 -15.6875 7.96875 -15.46875 C 7.957031 -15.25 7.960938 -15.023438 7.984375 -14.796875 C 8.015625 -14.566406 8.03125 -14.382812 8.03125 -14.25 C 8.050781 -13.820312 8.0625 -13.390625 8.0625 -12.953125 C 8.0625 -12.523438 8.0625 -12.097656 8.0625 -11.671875 C 8.0625 -11.484375 8.117188 -11.363281 8.234375 -11.3125 C 8.359375 -11.257812 8.507812 -11.234375 8.6875 -11.234375 C 9.875 -11.234375 11.0625 -11.234375 12.25 -11.234375 C 13.4375 -11.234375 14.625 -11.222656 15.8125 -11.203125 Z M 17.078125 -11.203125 "/></g></g></g><g fill="#000000" fill-opacity="1"><g transform="translate(185.056847, 305.934354)"><g><path d="M 0.921875 -9.765625 C 0.992188 -8.679688 1.304688 -7.640625 1.859375 -6.640625 C 2.410156 -5.648438 3.113281 -4.734375 3.96875 -3.890625 C 4.832031 -3.046875 5.769531 -2.3125 6.78125 -1.6875 C 7.800781 -1.0625 8.828125 -0.582031 9.859375 -0.25 C 11.441406 0.269531 13.0625 0.609375 14.71875 0.765625 C 16.382812 0.929688 18.050781 0.984375 19.71875 0.921875 C 21.726562 0.847656 23.71875 0.613281 25.6875 0.21875 C 27.65625 -0.164062 29.535156 -0.789062 31.328125 -1.65625 C 32.191406 -2.082031 33.023438 -2.578125 33.828125 -3.140625 C 34.628906 -3.710938 35.316406 -4.375 35.890625 -5.125 C 36.640625 -6.070312 37.125 -7.085938 37.34375 -8.171875 C 37.570312 -9.253906 37.546875 -10.335938 37.265625 -11.421875 C 36.984375 -12.503906 36.453125 -13.503906 35.671875 -14.421875 C 34.492188 -15.859375 33.046875 -16.988281 31.328125 -17.8125 C 29.609375 -18.632812 27.835938 -19.25 26.015625 -19.65625 C 23.878906 -20.144531 21.695312 -20.398438 19.46875 -20.421875 C 17.238281 -20.453125 15.039062 -20.253906 12.875 -19.828125 C 11.550781 -19.566406 10.210938 -19.207031 8.859375 -18.75 C 7.503906 -18.289062 6.238281 -17.679688 5.0625 -16.921875 C 3.882812 -16.171875 2.90625 -15.21875 2.125 -14.0625 C 1.65625 -13.34375 1.328125 -12.625 1.140625 -11.90625 C 0.960938 -11.195312 0.890625 -10.484375 0.921875 -9.765625 Z M 6.15625 -9.75 C 6.132812 -10.289062 6.210938 -10.832031 6.390625 -11.375 C 6.566406 -11.914062 6.882812 -12.445312 7.34375 -12.96875 C 7.820312 -13.5625 8.394531 -14.050781 9.0625 -14.4375 C 9.738281 -14.820312 10.441406 -15.144531 11.171875 -15.40625 C 12.890625 -16.039062 14.660156 -16.46875 16.484375 -16.6875 C 18.316406 -16.914062 20.144531 -16.921875 21.96875 -16.703125 C 23.800781 -16.484375 25.566406 -16.03125 27.265625 -15.34375 C 27.867188 -15.101562 28.445312 -14.816406 29 -14.484375 C 29.5625 -14.160156 30.078125 -13.773438 30.546875 -13.328125 C 31.347656 -12.523438 31.828125 -11.71875 31.984375 -10.90625 C 32.148438 -10.09375 32.066406 -9.296875 31.734375 -8.515625 C 31.410156 -7.734375 30.925781 -7.003906 30.28125 -6.328125 C 29.632812 -5.648438 28.914062 -5.0625 28.125 -4.5625 C 27.332031 -4.0625 26.546875 -3.671875 25.765625 -3.390625 C 24.210938 -2.847656 22.582031 -2.53125 20.875 -2.4375 C 19.164062 -2.34375 17.46875 -2.4375 15.78125 -2.71875 C 14.101562 -3.007812 12.507812 -3.457031 11 -4.0625 C 10.175781 -4.394531 9.40625 -4.84375 8.6875 -5.40625 C 7.96875 -5.976562 7.375 -6.640625 6.90625 -7.390625 C 6.445312 -8.140625 6.195312 -8.925781 6.15625 -9.75 Z M 6.15625 -9.75 "/></g></g></g><g fill="#000000" fill-opacity="1"><g transform="translate(228.703557, 305.934354)"><g><path d="M 2.234375 -0.0625 C 2.421875 0.144531 2.722656 0.210938 3.140625 0.140625 C 3.734375 -0.00390625 4.347656 -0.0507812 4.984375 0 C 5.617188 0.0390625 6.242188 0.0664062 6.859375 0.078125 C 7.453125 0.0976562 7.675781 -0.171875 7.53125 -0.734375 C 7.363281 -1.378906 7.273438 -2.0625 7.265625 -2.78125 C 7.253906 -3.5 7.273438 -4.226562 7.328125 -4.96875 C 7.390625 -5.707031 7.410156 -6.40625 7.390625 -7.0625 C 7.390625 -8.125 7.378906 -9.191406 7.359375 -10.265625 C 7.347656 -11.335938 7.3125 -12.40625 7.25 -13.46875 C 7.226562 -13.875 7.257812 -14.109375 7.34375 -14.171875 C 7.425781 -14.242188 7.535156 -14.210938 7.671875 -14.078125 C 7.816406 -13.953125 7.957031 -13.804688 8.09375 -13.640625 C 8.238281 -13.472656 8.367188 -13.347656 8.484375 -13.265625 C 10.835938 -11.679688 13.191406 -10.109375 15.546875 -8.546875 C 17.910156 -6.992188 20.257812 -5.414062 22.59375 -3.8125 C 23.25 -3.375 23.890625 -2.9375 24.515625 -2.5 C 25.140625 -2.0625 25.769531 -1.628906 26.40625 -1.203125 C 26.882812 -0.890625 27.367188 -0.582031 27.859375 -0.28125 C 28.359375 0.0195312 28.921875 0.140625 29.546875 0.078125 C 30.234375 0.0234375 30.921875 -0.00390625 31.609375 -0.015625 C 32.296875 -0.0234375 32.988281 -0.0078125 33.6875 0.03125 C 33.90625 0.03125 34.191406 0.0664062 34.546875 0.140625 C 34.898438 0.210938 35.234375 0.222656 35.546875 0.171875 C 35.867188 0.128906 36.066406 -0.0390625 36.140625 -0.34375 C 36.179688 -0.507812 36.160156 -0.679688 36.078125 -0.859375 C 35.992188 -1.046875 35.953125 -1.226562 35.953125 -1.40625 C 35.953125 -1.757812 35.957031 -1.988281 35.96875 -2.09375 C 35.976562 -2.207031 35.984375 -2.441406 35.984375 -2.796875 C 35.984375 -4.203125 35.972656 -5.601562 35.953125 -7 C 35.929688 -8.394531 35.910156 -9.796875 35.890625 -11.203125 C 35.890625 -12.378906 35.859375 -13.597656 35.796875 -14.859375 C 35.734375 -16.117188 35.8125 -17.328125 36.03125 -18.484375 C 36.125 -19.003906 36.082031 -19.363281 35.90625 -19.5625 C 35.726562 -19.769531 35.367188 -19.820312 34.828125 -19.71875 C 34.328125 -19.625 33.820312 -19.578125 33.3125 -19.578125 C 32.8125 -19.578125 32.320312 -19.613281 31.84375 -19.6875 C 31.3125 -19.78125 30.972656 -19.769531 30.828125 -19.65625 C 30.691406 -19.539062 30.644531 -19.351562 30.6875 -19.09375 C 30.726562 -18.832031 30.75 -18.515625 30.75 -18.140625 C 30.75 -16.054688 30.753906 -13.960938 30.765625 -11.859375 C 30.785156 -9.753906 30.757812 -7.660156 30.6875 -5.578125 C 30.664062 -5.398438 30.660156 -5.226562 30.671875 -5.0625 C 30.679688 -4.894531 30.710938 -4.738281 30.765625 -4.59375 C 30.785156 -4.519531 30.8125 -4.441406 30.84375 -4.359375 C 30.882812 -4.285156 30.914062 -4.203125 30.9375 -4.109375 C 30.957031 -4.035156 30.96875 -3.953125 30.96875 -3.859375 C 30.96875 -3.765625 30.941406 -3.679688 30.890625 -3.609375 C 30.796875 -3.460938 30.675781 -3.410156 30.53125 -3.453125 C 30.394531 -3.503906 30.269531 -3.585938 30.15625 -3.703125 C 30.039062 -3.828125 29.957031 -3.925781 29.90625 -4 C 29.769531 -4.15625 29.625 -4.285156 29.46875 -4.390625 C 29.3125 -4.503906 29.160156 -4.617188 29.015625 -4.734375 C 25.960938 -6.828125 22.921875 -8.914062 19.890625 -11 C 16.859375 -13.09375 13.832031 -15.191406 10.8125 -17.296875 C 10.457031 -17.546875 10.070312 -17.84375 9.65625 -18.1875 C 9.25 -18.53125 8.820312 -18.847656 8.375 -19.140625 C 7.925781 -19.429688 7.476562 -19.601562 7.03125 -19.65625 C 6.894531 -19.675781 6.75 -19.675781 6.59375 -19.65625 C 6.4375 -19.632812 6.28125 -19.613281 6.125 -19.59375 C 5.769531 -19.582031 5.414062 -19.578125 5.0625 -19.578125 C 4.707031 -19.585938 4.34375 -19.613281 3.96875 -19.65625 C 3.726562 -19.695312 3.46875 -19.734375 3.1875 -19.765625 C 2.90625 -19.804688 2.65625 -19.75 2.4375 -19.59375 C 2.226562 -19.445312 2.113281 -19.226562 2.09375 -18.9375 C 2.082031 -18.65625 2.078125 -18.398438 2.078125 -18.171875 C 2.085938 -15.578125 2.09375 -12.984375 2.09375 -10.390625 C 2.09375 -7.796875 2.09375 -5.203125 2.09375 -2.609375 C 2.09375 -2.378906 2.070312 -2.097656 2.03125 -1.765625 C 2 -1.429688 1.988281 -1.109375 2 -0.796875 C 2.007812 -0.492188 2.085938 -0.25 2.234375 -0.0625 Z M 2.234375 -0.0625 "/></g></g></g><g fill="#000000" fill-opacity="1"><g transform="translate(271.202425, 305.934354)"><g><path d="M 2.796875 0 L 2.859375 0.0625 C 3.003906 0.1875 3.179688 0.222656 3.390625 0.171875 C 3.597656 0.128906 3.789062 0.09375 3.96875 0.0625 C 4.175781 0 4.382812 -0.0351562 4.59375 -0.046875 C 4.800781 -0.0546875 5 -0.0507812 5.1875 -0.03125 C 9.082031 0.0390625 12.972656 0.0507812 16.859375 0 C 20.753906 -0.0390625 24.644531 -0.0625 28.53125 -0.0625 C 28.90625 -0.0625 29.144531 -0.0546875 29.25 -0.046875 C 29.363281 -0.0351562 29.597656 -0.03125 29.953125 -0.03125 C 30.160156 -0.03125 30.359375 0.00390625 30.546875 0.078125 C 30.734375 0.160156 30.914062 0.195312 31.09375 0.1875 C 31.269531 0.175781 31.425781 0.046875 31.5625 -0.203125 C 31.6875 -0.398438 31.734375 -0.644531 31.703125 -0.9375 C 31.679688 -1.226562 31.640625 -1.515625 31.578125 -1.796875 C 31.523438 -2.085938 31.5 -2.347656 31.5 -2.578125 C 31.5 -2.929688 31.507812 -3.21875 31.53125 -3.4375 C 31.550781 -3.664062 31.488281 -3.835938 31.34375 -3.953125 C 31.207031 -4.078125 30.894531 -4.140625 30.40625 -4.140625 C 26.800781 -4.117188 23.191406 -4.097656 19.578125 -4.078125 C 15.972656 -4.066406 12.359375 -4.050781 8.734375 -4.03125 C 8.265625 -4.03125 8.003906 -4.179688 7.953125 -4.484375 C 7.898438 -4.796875 7.851562 -5.128906 7.8125 -5.484375 C 7.769531 -5.804688 7.726562 -6.164062 7.6875 -6.5625 C 7.65625 -6.96875 7.722656 -7.316406 7.890625 -7.609375 C 8.003906 -7.796875 8.175781 -7.894531 8.40625 -7.90625 C 8.644531 -7.914062 8.867188 -7.894531 9.078125 -7.84375 C 9.390625 -7.75 9.691406 -7.695312 9.984375 -7.6875 C 10.285156 -7.675781 10.609375 -7.671875 10.953125 -7.671875 C 14.234375 -7.671875 17.53125 -7.671875 20.84375 -7.671875 C 24.15625 -7.671875 27.460938 -7.679688 30.765625 -7.703125 C 30.847656 -7.703125 30.925781 -7.707031 31 -7.71875 C 31.070312 -7.726562 31.132812 -7.757812 31.1875 -7.8125 C 31.257812 -7.882812 31.296875 -8.003906 31.296875 -8.171875 L 31.5625 -10.5 C 31.613281 -10.945312 31.488281 -11.257812 31.1875 -11.4375 C 30.894531 -11.613281 30.515625 -11.707031 30.046875 -11.71875 C 29.578125 -11.726562 29.113281 -11.707031 28.65625 -11.65625 C 28.195312 -11.613281 27.835938 -11.59375 27.578125 -11.59375 C 26.660156 -11.570312 25.738281 -11.5625 24.8125 -11.5625 C 23.894531 -11.5625 22.96875 -11.550781 22.03125 -11.53125 C 20.1875 -11.53125 18.335938 -11.523438 16.484375 -11.515625 C 14.640625 -11.515625 12.796875 -11.515625 10.953125 -11.515625 C 10.597656 -11.515625 10.160156 -11.472656 9.640625 -11.390625 C 9.128906 -11.316406 8.71875 -11.316406 8.40625 -11.390625 C 8.195312 -11.429688 8.039062 -11.554688 7.9375 -11.765625 C 7.832031 -11.984375 7.789062 -12.195312 7.8125 -12.40625 C 7.8125 -12.738281 7.800781 -13.085938 7.78125 -13.453125 C 7.757812 -13.816406 7.769531 -14.15625 7.8125 -14.46875 C 7.851562 -14.789062 7.960938 -15.050781 8.140625 -15.25 C 8.328125 -15.457031 8.640625 -15.5625 9.078125 -15.5625 C 11.054688 -15.550781 13.03125 -15.546875 15 -15.546875 C 16.976562 -15.546875 18.957031 -15.535156 20.9375 -15.515625 C 21.925781 -15.492188 22.925781 -15.484375 23.9375 -15.484375 C 24.945312 -15.484375 25.945312 -15.472656 26.9375 -15.453125 C 27.363281 -15.453125 27.78125 -15.457031 28.1875 -15.46875 C 28.601562 -15.476562 29.015625 -15.460938 29.421875 -15.421875 C 29.722656 -15.410156 30.050781 -15.390625 30.40625 -15.359375 C 30.757812 -15.328125 31.054688 -15.414062 31.296875 -15.625 C 31.453125 -15.738281 31.535156 -15.882812 31.546875 -16.0625 C 31.566406 -16.238281 31.578125 -16.410156 31.578125 -16.578125 L 31.5 -18.5625 C 31.5 -18.695312 31.488281 -18.820312 31.46875 -18.9375 C 31.445312 -19.0625 31.398438 -19.171875 31.328125 -19.265625 C 31.222656 -19.410156 31.078125 -19.5 30.890625 -19.53125 C 30.710938 -19.5625 30.535156 -19.578125 30.359375 -19.578125 L 3.5625 -19.65625 C 3.207031 -19.65625 2.960938 -19.503906 2.828125 -19.203125 C 2.691406 -18.910156 2.625 -18.539062 2.625 -18.09375 C 2.625 -17.65625 2.648438 -17.226562 2.703125 -16.8125 C 2.765625 -16.394531 2.796875 -16.054688 2.796875 -15.796875 C 2.816406 -14.597656 2.828125 -13.40625 2.828125 -12.21875 C 2.828125 -11.03125 2.828125 -9.84375 2.828125 -8.65625 C 2.828125 -7.8125 2.828125 -6.972656 2.828125 -6.140625 C 2.828125 -5.316406 2.816406 -4.492188 2.796875 -3.671875 C 2.796875 -3.128906 2.753906 -2.59375 2.671875 -2.0625 C 2.585938 -1.53125 2.582031 -0.992188 2.65625 -0.453125 C 2.675781 -0.378906 2.695312 -0.300781 2.71875 -0.21875 C 2.738281 -0.144531 2.765625 -0.0703125 2.796875 0 Z M 2.796875 0 "/></g></g></g><g fill="#000000" fill-opacity="1"><g transform="translate(309.921813, 305.934354)"><g><path d="M 1.84375 -1.40625 C 1.84375 -1.40625 1.828125 -1.421875 1.796875 -1.453125 C 1.773438 -1.492188 1.757812 -1.539062 1.75 -1.59375 C 1.738281 -1.65625 1.722656 -1.710938 1.703125 -1.765625 C 1.597656 -3.234375 1.570312 -4.726562 1.625 -6.25 C 2.664062 -5.425781 3.800781 -4.753906 5.03125 -4.234375 C 6.269531 -3.722656 7.539062 -3.335938 8.84375 -3.078125 C 10.15625 -2.835938 11.472656 -2.679688 12.796875 -2.609375 C 14.117188 -2.546875 15.4375 -2.523438 16.75 -2.546875 C 17.738281 -2.585938 18.726562 -2.640625 19.71875 -2.703125 C 20.71875 -2.765625 21.707031 -2.910156 22.6875 -3.140625 C 23.1875 -3.242188 23.675781 -3.425781 24.15625 -3.6875 C 24.644531 -3.957031 24.957031 -4.34375 25.09375 -4.84375 C 25.1875 -5.25 25.117188 -5.644531 24.890625 -6.03125 C 24.671875 -6.414062 24.375 -6.710938 24 -6.921875 C 23.644531 -7.117188 23.257812 -7.253906 22.84375 -7.328125 C 22.4375 -7.410156 22.023438 -7.46875 21.609375 -7.5 C 19.578125 -7.65625 17.546875 -7.734375 15.515625 -7.734375 C 13.492188 -7.734375 11.476562 -7.796875 9.46875 -7.921875 C 8.71875 -7.984375 7.960938 -8.0625 7.203125 -8.15625 C 6.453125 -8.257812 5.722656 -8.441406 5.015625 -8.703125 C 4.316406 -8.960938 3.65625 -9.316406 3.03125 -9.765625 C 2.40625 -10.210938 1.910156 -10.765625 1.546875 -11.421875 C 1.015625 -12.316406 0.804688 -13.304688 0.921875 -14.390625 C 1.035156 -15.472656 1.425781 -16.398438 2.09375 -17.171875 C 2.632812 -17.765625 3.265625 -18.234375 3.984375 -18.578125 C 4.703125 -18.921875 5.445312 -19.195312 6.21875 -19.40625 C 7.96875 -19.882812 9.757812 -20.179688 11.59375 -20.296875 C 13.425781 -20.410156 15.242188 -20.445312 17.046875 -20.40625 C 18.992188 -20.394531 20.9375 -20.273438 22.875 -20.046875 C 24.8125 -19.828125 26.660156 -19.304688 28.421875 -18.484375 C 28.535156 -18.421875 28.644531 -18.359375 28.75 -18.296875 C 28.863281 -18.234375 28.953125 -18.144531 29.015625 -18.03125 C 29.046875 -17.9375 29.066406 -17.835938 29.078125 -17.734375 C 29.085938 -17.628906 29.09375 -17.523438 29.09375 -17.421875 C 29.070312 -16.722656 29.054688 -16.035156 29.046875 -15.359375 C 29.035156 -14.679688 29.03125 -13.992188 29.03125 -13.296875 C 28.476562 -13.859375 27.851562 -14.328125 27.15625 -14.703125 C 26.46875 -15.085938 25.75 -15.414062 25 -15.6875 C 24.625 -15.8125 24.238281 -15.929688 23.84375 -16.046875 C 23.457031 -16.160156 23.0625 -16.253906 22.65625 -16.328125 C 22.40625 -16.398438 22.164062 -16.472656 21.9375 -16.546875 C 21.707031 -16.617188 21.460938 -16.675781 21.203125 -16.71875 C 20.953125 -16.75 20.707031 -16.753906 20.46875 -16.734375 C 20.238281 -16.722656 19.992188 -16.726562 19.734375 -16.75 C 18.546875 -16.851562 17.34375 -16.90625 16.125 -16.90625 C 14.914062 -16.925781 13.703125 -16.882812 12.484375 -16.78125 C 11.273438 -16.675781 10.082031 -16.492188 8.90625 -16.234375 C 8.582031 -16.160156 8.257812 -16.070312 7.9375 -15.96875 C 7.613281 -15.863281 7.320312 -15.710938 7.0625 -15.515625 C 6.789062 -15.328125 6.570312 -15.078125 6.40625 -14.765625 C 6.238281 -14.460938 6.175781 -14.148438 6.21875 -13.828125 C 6.289062 -13.265625 6.59375 -12.84375 7.125 -12.5625 C 7.65625 -12.289062 8.191406 -12.097656 8.734375 -11.984375 C 10.429688 -11.671875 12.144531 -11.492188 13.875 -11.453125 C 15.613281 -11.410156 17.351562 -11.382812 19.09375 -11.375 C 20.832031 -11.375 22.550781 -11.234375 24.25 -10.953125 C 24.90625 -10.859375 25.546875 -10.71875 26.171875 -10.53125 C 26.804688 -10.34375 27.414062 -10.082031 28 -9.75 C 28.5625 -9.394531 29.054688 -8.953125 29.484375 -8.421875 C 29.910156 -7.898438 30.179688 -7.3125 30.296875 -6.65625 C 30.367188 -6.25 30.378906 -5.84375 30.328125 -5.4375 C 30.285156 -5.039062 30.21875 -4.644531 30.125 -4.25 C 30.050781 -3.894531 29.945312 -3.546875 29.8125 -3.203125 C 29.6875 -2.859375 29.507812 -2.535156 29.28125 -2.234375 C 28.96875 -1.785156 28.5625 -1.425781 28.0625 -1.15625 C 27.570312 -0.882812 27.066406 -0.648438 26.546875 -0.453125 C 24.492188 0.296875 22.363281 0.726562 20.15625 0.84375 C 17.957031 0.957031 15.765625 0.972656 13.578125 0.890625 C 11.640625 0.816406 9.6875 0.65625 7.71875 0.40625 C 5.757812 0.15625 3.894531 -0.378906 2.125 -1.203125 C 1.976562 -1.273438 1.882812 -1.34375 1.84375 -1.40625 Z M 1.84375 -1.40625 "/></g></g></g><g fill="#000000" fill-opacity="1"><g transform="translate(92.502399, 329.986442)"><g><path d="M 0.75 -16.3125 L 1.109375 -16.3125 C 1.148438 -16.09375 1.238281 -15.945312 1.375 -15.875 C 1.519531 -15.8125 1.78125 -15.78125 2.15625 -15.78125 L 11.125 -15.78125 C 11.445312 -15.78125 11.695312 -15.804688 11.875 -15.859375 C 12.0625 -15.921875 12.171875 -16.070312 12.203125 -16.3125 L 12.5625 -16.3125 L 12.5625 -13.34375 L 12.203125 -13.34375 C 12.171875 -13.570312 12.0625 -13.722656 11.875 -13.796875 C 11.695312 -13.878906 11.46875 -13.921875 11.1875 -13.921875 L 7.765625 -13.921875 L 7.765625 -1.4375 C 7.765625 -1.019531 7.820312 -0.742188 7.9375 -0.609375 C 8.0625 -0.484375 8.316406 -0.398438 8.703125 -0.359375 L 8.703125 0 L 4.625 0 L 4.625 -0.359375 C 5 -0.398438 5.242188 -0.484375 5.359375 -0.609375 C 5.484375 -0.742188 5.546875 -1.019531 5.546875 -1.4375 L 5.546875 -13.921875 L 2.125 -13.921875 C 1.84375 -13.921875 1.613281 -13.878906 1.4375 -13.796875 C 1.257812 -13.722656 1.148438 -13.570312 1.109375 -13.34375 L 0.75 -13.34375 Z M 0.75 -16.3125 "/></g></g></g><g fill="#000000" fill-opacity="1"><g transform="translate(107.317209, 329.986442)"><g><path d="M 3.5625 -7.890625 C 3.5625 -6.003906 3.976562 -4.5 4.8125 -3.375 C 5.644531 -2.25 6.820312 -1.6875 8.34375 -1.6875 C 9.863281 -1.6875 11.035156 -2.25 11.859375 -3.375 C 12.691406 -4.5 13.109375 -6.003906 13.109375 -7.890625 C 13.109375 -9.785156 12.691406 -11.289062 11.859375 -12.40625 C 11.035156 -13.53125 9.851562 -14.09375 8.3125 -14.09375 C 6.875 -14.09375 5.722656 -13.546875 4.859375 -12.453125 C 3.992188 -11.367188 3.5625 -9.847656 3.5625 -7.890625 Z M 8.34375 -15.953125 C 9.476562 -15.953125 10.476562 -15.734375 11.34375 -15.296875 C 12.21875 -14.859375 12.953125 -14.269531 13.546875 -13.53125 C 14.140625 -12.789062 14.582031 -11.941406 14.875 -10.984375 C 15.175781 -10.035156 15.328125 -9.046875 15.328125 -8.015625 C 15.328125 -6.773438 15.15625 -5.648438 14.8125 -4.640625 C 14.476562 -3.628906 14 -2.765625 13.375 -2.046875 C 12.757812 -1.335938 12.023438 -0.785156 11.171875 -0.390625 C 10.328125 -0.00390625 9.382812 0.1875 8.34375 0.1875 C 7.195312 0.1875 6.1875 -0.03125 5.3125 -0.46875 C 4.445312 -0.914062 3.71875 -1.503906 3.125 -2.234375 C 2.539062 -2.960938 2.097656 -3.8125 1.796875 -4.78125 C 1.492188 -5.75 1.34375 -6.765625 1.34375 -7.828125 C 1.34375 -9.046875 1.515625 -10.15625 1.859375 -11.15625 C 2.203125 -12.15625 2.679688 -13.007812 3.296875 -13.71875 C 3.921875 -14.4375 4.660156 -14.988281 5.515625 -15.375 C 6.378906 -15.757812 7.320312 -15.953125 8.34375 -15.953125 Z M 8.34375 -15.953125 "/></g></g></g><g fill="#000000" fill-opacity="1"><g transform="translate(125.490724, 329.986442)"><g><path d="M 5.515625 -15.78125 L 5.515625 -15.421875 C 5.253906 -15.378906 5.09375 -15.269531 5.03125 -15.09375 C 4.976562 -14.925781 4.953125 -14.675781 4.953125 -14.34375 L 4.953125 -5.484375 C 4.953125 -4.910156 4.992188 -4.390625 5.078125 -3.921875 C 5.171875 -3.460938 5.34375 -3.0625 5.59375 -2.71875 C 5.84375 -2.382812 6.1875 -2.128906 6.625 -1.953125 C 7.070312 -1.773438 7.644531 -1.6875 8.34375 -1.6875 C 9.519531 -1.6875 10.378906 -1.957031 10.921875 -2.5 C 11.460938 -3.050781 11.734375 -4.007812 11.734375 -5.375 L 11.734375 -14.25 C 11.734375 -14.644531 11.703125 -14.925781 11.640625 -15.09375 C 11.578125 -15.269531 11.414062 -15.378906 11.15625 -15.421875 L 11.15625 -15.78125 L 14.578125 -15.78125 L 14.578125 -15.421875 C 14.296875 -15.378906 14.117188 -15.269531 14.046875 -15.09375 C 13.984375 -14.925781 13.953125 -14.644531 13.953125 -14.25 L 13.953125 -4.203125 C 13.953125 -3.617188 13.832031 -3.0625 13.59375 -2.53125 C 13.351562 -2 13 -1.535156 12.53125 -1.140625 C 12.070312 -0.742188 11.488281 -0.421875 10.78125 -0.171875 C 10.070312 0.0664062 9.257812 0.1875 8.34375 0.1875 C 7.40625 0.1875 6.582031 0.0664062 5.875 -0.171875 C 5.175781 -0.421875 4.597656 -0.742188 4.140625 -1.140625 C 3.679688 -1.535156 3.332031 -2 3.09375 -2.53125 C 2.851562 -3.0625 2.734375 -3.617188 2.734375 -4.203125 L 2.734375 -14.34375 C 2.734375 -14.675781 2.695312 -14.925781 2.625 -15.09375 C 2.550781 -15.269531 2.375 -15.378906 2.09375 -15.421875 L 2.09375 -15.78125 Z M 5.515625 -15.78125 "/></g></g></g><g fill="#000000" fill-opacity="1"><g transform="translate(143.664238, 329.986442)"><g><path d="M 9 -8.453125 C 9.957031 -8.453125 10.703125 -8.679688 11.234375 -9.140625 C 11.765625 -9.609375 12.03125 -10.289062 12.03125 -11.1875 C 12.03125 -13.007812 10.910156 -13.921875 8.671875 -13.921875 L 5.15625 -13.921875 L 5.15625 -8.453125 Z M 8.578125 -15.78125 C 10.335938 -15.78125 11.722656 -15.367188 12.734375 -14.546875 C 13.742188 -13.722656 14.25 -12.554688 14.25 -11.046875 C 14.25 -10.546875 14.171875 -10.0625 14.015625 -9.59375 C 13.867188 -9.132812 13.648438 -8.71875 13.359375 -8.34375 C 13.078125 -7.976562 12.722656 -7.675781 12.296875 -7.4375 C 11.878906 -7.195312 11.410156 -7.046875 10.890625 -6.984375 L 14.0625 -1.171875 C 14.3125 -0.710938 14.601562 -0.441406 14.9375 -0.359375 L 14.9375 0 L 11.40625 0 L 11.40625 -0.359375 C 11.738281 -0.421875 11.90625 -0.539062 11.90625 -0.71875 C 11.90625 -0.863281 11.835938 -1.035156 11.703125 -1.234375 C 11.578125 -1.429688 11.4375 -1.679688 11.28125 -1.984375 L 8.703125 -6.78125 L 5.15625 -6.78125 L 5.15625 -1.4375 C 5.15625 -1.0625 5.203125 -0.796875 5.296875 -0.640625 C 5.398438 -0.492188 5.625 -0.398438 5.96875 -0.359375 L 5.96875 0 L 2.0625 0 L 2.0625 -0.359375 C 2.40625 -0.398438 2.632812 -0.484375 2.75 -0.609375 C 2.875 -0.742188 2.9375 -1.019531 2.9375 -1.4375 L 2.9375 -14.28125 C 2.9375 -14.695312 2.878906 -14.976562 2.765625 -15.125 C 2.660156 -15.28125 2.410156 -15.378906 2.015625 -15.421875 L 2.015625 -15.78125 Z M 8.578125 -15.78125 "/></g></g></g><g fill="#000000" fill-opacity="1"><g transform="translate(161.837752, 329.986442)"><g><path d="M 6.59375 -15.78125 L 6.59375 -15.421875 C 6.476562 -15.421875 6.34375 -15.390625 6.1875 -15.328125 C 6.039062 -15.265625 5.96875 -15.164062 5.96875 -15.03125 C 5.96875 -14.851562 6.054688 -14.625 6.234375 -14.34375 C 6.421875 -14.0625 6.625 -13.738281 6.84375 -13.375 L 11.9375 -4.625 L 12.0625 -4.625 L 12.0625 -14.25 C 12.0625 -14.625 12.023438 -14.898438 11.953125 -15.078125 C 11.878906 -15.265625 11.675781 -15.378906 11.34375 -15.421875 L 11.34375 -15.78125 L 14.734375 -15.78125 L 14.734375 -15.421875 C 14.429688 -15.421875 14.238281 -15.378906 14.15625 -15.296875 C 14.082031 -15.222656 14.046875 -15.070312 14.046875 -14.84375 L 14.046875 -1.46875 C 14.046875 -1.050781 14.097656 -0.769531 14.203125 -0.625 C 14.316406 -0.488281 14.539062 -0.398438 14.875 -0.359375 L 14.875 0 L 11.046875 0 L 11.046875 -0.359375 C 11.265625 -0.398438 11.445312 -0.445312 11.59375 -0.5 C 11.738281 -0.5625 11.8125 -0.644531 11.8125 -0.75 C 11.8125 -0.90625 11.726562 -1.109375 11.5625 -1.359375 C 11.394531 -1.609375 11.109375 -2.066406 10.703125 -2.734375 L 4.6875 -13.078125 L 4.625 -13.078125 L 4.625 -1.46875 C 4.625 -1.070312 4.664062 -0.796875 4.75 -0.640625 C 4.84375 -0.492188 5.03125 -0.398438 5.3125 -0.359375 L 5.3125 0 L 2.09375 0 L 2.09375 -0.359375 C 2.300781 -0.398438 2.441406 -0.492188 2.515625 -0.640625 C 2.597656 -0.796875 2.640625 -1.050781 2.640625 -1.40625 L 2.640625 -14.34375 C 2.640625 -14.695312 2.597656 -14.953125 2.515625 -15.109375 C 2.441406 -15.273438 2.285156 -15.378906 2.046875 -15.421875 L 2.046875 -15.78125 Z M 6.59375 -15.78125 "/></g></g></g><g fill="#000000" fill-opacity="1"><g transform="translate(180.011267, 329.986442)"><g><path d="M 7.171875 -13.765625 L 4.953125 -6.390625 L 9.59375 -6.390625 L 7.234375 -13.765625 Z M 9.390625 -15.78125 L 9.390625 -15.421875 C 9.148438 -15.359375 9.03125 -15.164062 9.03125 -14.84375 C 9.03125 -14.664062 9.066406 -14.457031 9.140625 -14.21875 C 9.222656 -13.976562 9.296875 -13.769531 9.359375 -13.59375 L 13.59375 -1.265625 C 13.6875 -0.960938 13.769531 -0.75 13.84375 -0.625 C 13.914062 -0.507812 14.03125 -0.421875 14.1875 -0.359375 L 14.1875 0 L 11.046875 0 L 11.046875 -0.359375 C 11.316406 -0.460938 11.453125 -0.632812 11.453125 -0.875 C 11.453125 -1.070312 11.265625 -1.691406 10.890625 -2.734375 C 10.710938 -3.253906 10.570312 -3.65625 10.46875 -3.9375 C 10.363281 -4.226562 10.296875 -4.445312 10.265625 -4.59375 L 4.34375 -4.59375 C 4.25 -4.25 4.140625 -3.894531 4.015625 -3.53125 C 3.898438 -3.175781 3.769531 -2.800781 3.625 -2.40625 C 3.363281 -1.625 3.234375 -1.148438 3.234375 -0.984375 C 3.234375 -0.867188 3.269531 -0.726562 3.34375 -0.5625 C 3.414062 -0.40625 3.53125 -0.304688 3.6875 -0.265625 L 3.6875 0 L 0.8125 0 L 0.8125 -0.234375 C 0.90625 -0.335938 0.984375 -0.414062 1.046875 -0.46875 C 1.109375 -0.53125 1.179688 -0.6875 1.265625 -0.9375 L 5.28125 -13.40625 C 5.382812 -13.75 5.472656 -14.023438 5.546875 -14.234375 C 5.628906 -14.441406 5.671875 -14.644531 5.671875 -14.84375 C 5.671875 -15.1875 5.519531 -15.378906 5.21875 -15.421875 L 5.21875 -15.78125 Z M 9.390625 -15.78125 "/></g></g></g><g fill="#000000" fill-opacity="1"><g transform="translate(196.505429, 329.986442)"><g><path d="M 6.8125 -15.78125 L 6.8125 -15.421875 C 6.644531 -15.378906 6.5 -15.3125 6.375 -15.21875 C 6.25 -15.132812 6.1875 -15.007812 6.1875 -14.84375 C 6.1875 -14.644531 6.253906 -14.378906 6.390625 -14.046875 L 9.984375 -4.984375 L 10.046875 -4.984375 L 13.171875 -13.796875 C 13.265625 -14.097656 13.347656 -14.335938 13.421875 -14.515625 C 13.492188 -14.703125 13.53125 -14.84375 13.53125 -14.9375 C 13.53125 -15.082031 13.460938 -15.1875 13.328125 -15.25 C 13.203125 -15.320312 13.0625 -15.378906 12.90625 -15.421875 L 12.90625 -15.78125 L 17.484375 -15.78125 L 17.484375 -15.421875 C 17.203125 -15.378906 17.023438 -15.28125 16.953125 -15.125 C 16.890625 -14.976562 16.859375 -14.695312 16.859375 -14.28125 L 16.859375 -1.46875 C 16.859375 -1.070312 16.894531 -0.796875 16.96875 -0.640625 C 17.050781 -0.492188 17.265625 -0.398438 17.609375 -0.359375 L 17.609375 0 L 14.0625 0 L 14.0625 -0.359375 C 14.320312 -0.398438 14.503906 -0.460938 14.609375 -0.546875 C 14.710938 -0.640625 14.765625 -0.90625 14.765625 -1.34375 L 14.765625 -12.296875 L 14.703125 -12.296875 L 10.234375 -0.15625 L 9.84375 -0.15625 L 5.1875 -12.296875 L 5.125 -12.296875 L 5.125 -1.46875 C 5.125 -1.113281 5.164062 -0.847656 5.25 -0.671875 C 5.332031 -0.503906 5.519531 -0.398438 5.8125 -0.359375 L 5.8125 0 L 2.484375 0 L 2.484375 -0.359375 C 2.703125 -0.398438 2.847656 -0.503906 2.921875 -0.671875 C 2.992188 -0.847656 3.03125 -1.113281 3.03125 -1.46875 L 3.03125 -14.3125 C 3.03125 -14.644531 2.992188 -14.898438 2.921875 -15.078125 C 2.847656 -15.265625 2.675781 -15.378906 2.40625 -15.421875 L 2.40625 -15.78125 Z M 6.8125 -15.78125 "/></g></g></g><g fill="#000000" fill-opacity="1"><g transform="translate(218.00764, 329.986442)"><g><path d="M 13.171875 -13.171875 L 12.8125 -13.171875 C 12.769531 -13.492188 12.648438 -13.695312 12.453125 -13.78125 C 12.253906 -13.875 12.015625 -13.921875 11.734375 -13.921875 L 4.765625 -13.921875 L 4.765625 -9.0625 L 9.8125 -9.0625 C 10.070312 -9.0625 10.300781 -9.101562 10.5 -9.1875 C 10.695312 -9.28125 10.816406 -9.46875 10.859375 -9.75 L 11.21875 -9.75 L 11.21875 -6.421875 L 10.859375 -6.421875 C 10.796875 -6.941406 10.445312 -7.203125 9.8125 -7.203125 L 4.765625 -7.203125 L 4.765625 -1.859375 L 11.96875 -1.859375 C 12.1875 -1.859375 12.40625 -1.894531 12.625 -1.96875 C 12.84375 -2.050781 12.972656 -2.242188 13.015625 -2.546875 L 13.375 -2.546875 L 13.375 0.546875 L 13.015625 0.546875 C 12.972656 0.316406 12.847656 0.164062 12.640625 0.09375 C 12.429688 0.03125 12.207031 0 11.96875 0 L 1.921875 0 L 1.921875 -0.359375 C 2.179688 -0.398438 2.347656 -0.5 2.421875 -0.65625 C 2.503906 -0.820312 2.546875 -1.09375 2.546875 -1.46875 L 2.546875 -14.28125 C 2.546875 -14.65625 2.507812 -14.925781 2.4375 -15.09375 C 2.375 -15.269531 2.203125 -15.378906 1.921875 -15.421875 L 1.921875 -15.78125 L 11.96875 -15.78125 C 12.1875 -15.78125 12.367188 -15.8125 12.515625 -15.875 C 12.671875 -15.945312 12.769531 -16.09375 12.8125 -16.3125 L 13.171875 -16.3125 Z M 13.171875 -13.171875 "/></g></g></g><g fill="#000000" fill-opacity="1"><g transform="translate(234.501803, 329.986442)"><g><path d="M 6.59375 -15.78125 L 6.59375 -15.421875 C 6.476562 -15.421875 6.34375 -15.390625 6.1875 -15.328125 C 6.039062 -15.265625 5.96875 -15.164062 5.96875 -15.03125 C 5.96875 -14.851562 6.054688 -14.625 6.234375 -14.34375 C 6.421875 -14.0625 6.625 -13.738281 6.84375 -13.375 L 11.9375 -4.625 L 12.0625 -4.625 L 12.0625 -14.25 C 12.0625 -14.625 12.023438 -14.898438 11.953125 -15.078125 C 11.878906 -15.265625 11.675781 -15.378906 11.34375 -15.421875 L 11.34375 -15.78125 L 14.734375 -15.78125 L 14.734375 -15.421875 C 14.429688 -15.421875 14.238281 -15.378906 14.15625 -15.296875 C 14.082031 -15.222656 14.046875 -15.070312 14.046875 -14.84375 L 14.046875 -1.46875 C 14.046875 -1.050781 14.097656 -0.769531 14.203125 -0.625 C 14.316406 -0.488281 14.539062 -0.398438 14.875 -0.359375 L 14.875 0 L 11.046875 0 L 11.046875 -0.359375 C 11.265625 -0.398438 11.445312 -0.445312 11.59375 -0.5 C 11.738281 -0.5625 11.8125 -0.644531 11.8125 -0.75 C 11.8125 -0.90625 11.726562 -1.109375 11.5625 -1.359375 C 11.394531 -1.609375 11.109375 -2.066406 10.703125 -2.734375 L 4.6875 -13.078125 L 4.625 -13.078125 L 4.625 -1.46875 C 4.625 -1.070312 4.664062 -0.796875 4.75 -0.640625 C 4.84375 -0.492188 5.03125 -0.398438 5.3125 -0.359375 L 5.3125 0 L 2.09375 0 L 2.09375 -0.359375 C 2.300781 -0.398438 2.441406 -0.492188 2.515625 -0.640625 C 2.597656 -0.796875 2.640625 -1.050781 2.640625 -1.40625 L 2.640625 -14.34375 C 2.640625 -14.695312 2.597656 -14.953125 2.515625 -15.109375 C 2.441406 -15.273438 2.285156 -15.378906 2.046875 -15.421875 L 2.046875 -15.78125 Z M 6.59375 -15.78125 "/></g></g></g><g fill="#000000" fill-opacity="1"><g transform="translate(252.675317, 329.986442)"><g><path d="M 0.75 -16.3125 L 1.109375 -16.3125 C 1.148438 -16.09375 1.238281 -15.945312 1.375 -15.875 C 1.519531 -15.8125 1.78125 -15.78125 2.15625 -15.78125 L 11.125 -15.78125 C 11.445312 -15.78125 11.695312 -15.804688 11.875 -15.859375 C 12.0625 -15.921875 12.171875 -16.070312 12.203125 -16.3125 L 12.5625 -16.3125 L 12.5625 -13.34375 L 12.203125 -13.34375 C 12.171875 -13.570312 12.0625 -13.722656 11.875 -13.796875 C 11.695312 -13.878906 11.46875 -13.921875 11.1875 -13.921875 L 7.765625 -13.921875 L 7.765625 -1.4375 C 7.765625 -1.019531 7.820312 -0.742188 7.9375 -0.609375 C 8.0625 -0.484375 8.316406 -0.398438 8.703125 -0.359375 L 8.703125 0 L 4.625 0 L 4.625 -0.359375 C 5 -0.398438 5.242188 -0.484375 5.359375 -0.609375 C 5.484375 -0.742188 5.546875 -1.019531 5.546875 -1.4375 L 5.546875 -13.921875 L 2.125 -13.921875 C 1.84375 -13.921875 1.613281 -13.878906 1.4375 -13.796875 C 1.257812 -13.722656 1.148438 -13.570312 1.109375 -13.34375 L 0.75 -13.34375 Z M 0.75 -16.3125 "/></g></g></g><g fill="#000000" fill-opacity="1"><g transform="translate(267.490128, 329.986442)"><g><path d="M 7.5 -15.953125 C 8.238281 -15.953125 8.878906 -15.890625 9.421875 -15.765625 C 9.960938 -15.648438 10.421875 -15.523438 10.796875 -15.390625 C 11.179688 -15.253906 11.492188 -15.125 11.734375 -15 C 11.972656 -14.875 12.171875 -14.8125 12.328125 -14.8125 C 12.429688 -14.8125 12.503906 -14.828125 12.546875 -14.859375 C 12.597656 -14.890625 12.644531 -14.925781 12.6875 -14.96875 L 12.953125 -14.796875 L 11.4375 -11.96875 L 11.125 -12.125 C 11.125 -12.757812 10.785156 -13.242188 10.109375 -13.578125 C 9.429688 -13.921875 8.582031 -14.09375 7.5625 -14.09375 C 7.082031 -14.09375 6.617188 -14.035156 6.171875 -13.921875 C 5.734375 -13.816406 5.347656 -13.660156 5.015625 -13.453125 C 4.691406 -13.242188 4.429688 -12.976562 4.234375 -12.65625 C 4.046875 -12.34375 3.953125 -11.972656 3.953125 -11.546875 C 3.953125 -10.984375 4.222656 -10.550781 4.765625 -10.25 C 5.304688 -9.957031 6.085938 -9.679688 7.109375 -9.421875 C 7.953125 -9.222656 8.75 -9.007812 9.5 -8.78125 C 10.25 -8.550781 10.898438 -8.253906 11.453125 -7.890625 C 12.015625 -7.523438 12.460938 -7.070312 12.796875 -6.53125 C 13.128906 -6 13.296875 -5.332031 13.296875 -4.53125 C 13.296875 -3.050781 12.769531 -1.894531 11.71875 -1.0625 C 10.664062 -0.226562 9.226562 0.1875 7.40625 0.1875 C 6.664062 0.1875 5.941406 0.09375 5.234375 -0.09375 C 4.523438 -0.289062 3.84375 -0.550781 3.1875 -0.875 C 3 -0.945312 2.859375 -1.007812 2.765625 -1.0625 C 2.679688 -1.113281 2.578125 -1.140625 2.453125 -1.140625 C 2.234375 -1.140625 2.054688 -1.039062 1.921875 -0.84375 L 1.5625 -0.953125 L 3.453125 -4.34375 L 3.75 -4.234375 C 3.75 -3.390625 4.085938 -2.753906 4.765625 -2.328125 C 5.453125 -1.898438 6.394531 -1.6875 7.59375 -1.6875 C 8.03125 -1.6875 8.46875 -1.738281 8.90625 -1.84375 C 9.34375 -1.957031 9.742188 -2.125 10.109375 -2.34375 C 10.472656 -2.5625 10.765625 -2.835938 10.984375 -3.171875 C 11.203125 -3.515625 11.3125 -3.914062 11.3125 -4.375 C 11.3125 -4.800781 11.207031 -5.160156 11 -5.453125 C 10.789062 -5.753906 10.5 -6.019531 10.125 -6.25 C 9.75 -6.476562 9.296875 -6.671875 8.765625 -6.828125 C 8.242188 -6.992188 7.660156 -7.15625 7.015625 -7.3125 C 6.335938 -7.5 5.691406 -7.691406 5.078125 -7.890625 C 4.472656 -8.085938 3.941406 -8.347656 3.484375 -8.671875 C 3.023438 -8.992188 2.660156 -9.382812 2.390625 -9.84375 C 2.117188 -10.300781 1.984375 -10.859375 1.984375 -11.515625 C 1.984375 -12.921875 2.488281 -14.007812 3.5 -14.78125 C 4.507812 -15.5625 5.84375 -15.953125 7.5 -15.953125 Z M 7.5 -15.953125 "/></g></g></g></svg>